<svg id="svg" version="1.1" xmlns="http://www.w3.org/2000/svg" xmlns:xlink="http://www.w3.org/1999/xlink" width="400" height="299.23664122137404" viewBox="0, 0, 400,299.23664122137404"><g id="svgg"><path id="path0" d="M321.447 55.163 C 321.039 55.699,320.616 56.495,320.507 56.931 C 320.398 57.368,320.076 57.976,319.790 58.282 C 319.188 58.929,317.066 62.196,317.066 62.478 C 317.066 62.582,316.730 63.108,316.320 63.645 C 315.910 64.183,315.152 65.408,314.634 66.368 C 314.117 67.328,313.333 68.518,312.892 69.012 C 312.451 69.506,311.762 70.583,311.360 71.406 C 310.958 72.229,310.472 73.105,310.280 73.353 C 308.874 75.165,305.451 80.551,305.285 81.212 C 305.173 81.659,304.696 82.465,304.226 83.003 C 303.755 83.542,302.788 85.060,302.077 86.377 C 301.365 87.695,300.620 88.937,300.421 89.139 C 300.222 89.340,299.747 90.014,299.367 90.636 C 297.208 94.165,294.910 92.842,294.910 88.069 C 294.910 86.813,294.681 85.406,294.301 84.323 C 293.388 81.726,292.861 78.512,292.500 73.353 C 292.047 66.858,291.858 65.691,290.335 60.030 C 289.503 56.935,288.394 57.256,287.859 60.748 C 287.576 62.596,287.010 63.785,285.946 64.771 C 285.421 65.257,285.030 65.922,285.030 66.328 C 285.030 67.014,284.419 69.586,283.965 70.808 C 283.843 71.138,283.459 71.677,283.111 72.006 C 282.441 72.641,281.902 73.977,281.571 75.828 C 281.438 76.570,281.065 77.194,280.484 77.649 C 279.760 78.215,279.489 78.802,279.001 80.862 C 278.672 82.249,278.329 83.686,278.238 84.057 C 278.148 84.427,277.642 85.168,277.115 85.703 C 276.465 86.363,276.032 87.207,275.772 88.323 C 275.121 91.114,274.543 92.645,273.962 93.114 C 273.655 93.361,273.119 94.500,272.771 95.645 C 272.121 97.782,271.471 98.802,270.762 98.802 C 270.540 98.802,270.359 99.072,270.359 99.401 C 270.359 100.516,274.693 100.062,276.647 98.742 C 277.619 98.086,280.516 97.360,284.602 96.749 C 285.597 96.600,286.525 96.205,287.296 95.600 C 288.563 94.609,289.174 94.414,292.289 94.011 C 293.400 93.867,294.424 93.678,294.564 93.592 C 294.705 93.505,295.109 93.704,295.464 94.034 C 296.464 94.966,296.316 96.584,295.023 98.848 C 294.426 99.893,293.601 101.355,293.189 102.096 C 292.777 102.837,292.199 103.713,291.905 104.042 C 291.612 104.371,290.989 105.336,290.521 106.186 C 290.053 107.037,289.304 108.143,288.856 108.644 C 288.408 109.146,287.955 109.900,287.850 110.320 C 287.744 110.740,287.538 111.158,287.392 111.248 C 287.246 111.339,287.126 111.627,287.126 111.889 C 287.126 112.150,286.688 112.791,286.153 113.313 C 285.618 113.834,284.776 115.036,284.282 115.983 C 283.789 116.931,283.149 117.919,282.860 118.181 C 282.572 118.442,282.335 118.837,282.335 119.058 C 282.335 119.280,282.215 119.461,282.068 119.461 C 281.922 119.461,281.711 119.823,281.599 120.266 C 281.367 121.192,280.347 122.734,279.610 123.273 C 279.333 123.476,278.858 124.333,278.554 125.177 C 277.997 126.725,277.332 127.634,276.156 128.455 C 275.803 128.701,275.142 129.574,274.686 130.394 C 274.230 131.215,273.640 132.088,273.375 132.335 C 273.109 132.582,272.456 133.694,271.922 134.806 C 271.388 135.918,270.553 137.183,270.065 137.617 C 269.578 138.051,268.949 139.028,268.668 139.787 C 268.198 141.054,267.221 142.751,266.751 143.114 C 266.645 143.196,266.186 143.937,265.731 144.760 C 265.276 145.584,264.471 146.864,263.941 147.605 C 263.411 148.346,262.736 149.491,262.441 150.150 C 262.146 150.808,261.528 151.751,261.067 152.246 C 260.606 152.740,259.852 153.952,259.392 154.940 C 258.931 155.928,258.381 156.915,258.168 157.133 C 257.578 157.740,255.988 160.106,255.985 160.383 C 255.984 160.518,255.541 161.100,255.000 161.677 C 254.460 162.253,253.778 163.263,253.485 163.922 C 252.454 166.244,252.239 166.623,251.563 167.313 C 251.187 167.696,250.586 168.639,250.228 169.409 C 249.869 170.179,249.435 170.972,249.264 171.172 C 248.491 172.074,247.891 173.021,246.980 174.772 C 246.702 175.305,246.056 176.219,245.543 176.803 C 245.030 177.387,244.611 178.055,244.611 178.287 C 244.611 178.818,243.573 180.627,242.373 182.186 C 241.866 182.844,241.067 184.124,240.598 185.030 C 240.128 185.936,239.649 186.744,239.532 186.826 C 239.415 186.909,238.757 187.946,238.069 189.132 C 237.380 190.318,236.675 191.375,236.501 191.483 C 236.328 191.590,235.760 192.574,235.241 193.668 C 234.722 194.763,233.986 195.996,233.606 196.407 C 233.226 196.819,232.424 198.132,231.824 199.326 C 231.223 200.520,230.583 201.497,230.400 201.497 C 229.617 201.497,228.195 203.189,227.891 204.481 C 227.468 206.277,227.668 206.342,228.435 204.657 C 228.831 203.790,229.372 203.134,229.878 202.910 C 231.027 202.402,231.348 202.034,231.930 200.556 C 232.213 199.838,232.535 199.184,232.647 199.102 C 232.759 199.019,233.075 198.514,233.349 197.979 C 233.623 197.444,233.963 197.006,234.104 197.006 C 234.369 197.006,235.928 194.024,235.928 193.517 C 235.928 193.359,236.400 192.716,236.976 192.087 C 237.552 191.458,238.024 190.758,238.024 190.531 C 238.024 190.305,238.159 190.120,238.323 190.120 C 238.488 190.120,238.623 189.968,238.623 189.784 C 238.623 189.599,239.229 188.598,239.970 187.559 C 240.711 186.521,241.317 185.517,241.317 185.330 C 241.317 184.961,242.668 182.921,243.668 181.781 C 244.007 181.393,244.443 180.585,244.635 179.984 C 244.827 179.384,245.338 178.423,245.771 177.849 C 246.943 176.293,248.204 174.270,248.204 173.942 C 248.204 173.783,248.338 173.653,248.503 173.653 C 248.668 173.653,248.802 173.532,248.802 173.383 C 248.802 173.235,249.274 172.413,249.850 171.557 C 250.427 170.700,250.898 169.812,250.898 169.582 C 250.898 169.352,251.369 168.642,251.945 168.005 C 252.521 167.367,253.320 166.105,253.720 165.198 C 254.121 164.292,255.065 162.926,255.817 162.163 C 256.570 161.400,257.186 160.597,257.186 160.380 C 257.186 160.162,257.531 159.660,257.953 159.264 C 259.007 158.274,259.813 156.907,260.303 155.279 C 260.548 154.463,261.087 153.594,261.630 153.137 C 262.133 152.714,262.914 151.599,263.367 150.660 C 263.819 149.721,264.627 148.431,265.163 147.794 C 265.698 147.157,266.227 146.214,266.339 145.698 C 266.451 145.183,266.938 144.431,267.421 144.029 C 268.247 143.341,269.760 140.555,269.760 139.724 C 269.760 139.517,270.282 138.867,270.920 138.280 C 271.558 137.694,272.251 136.689,272.461 136.047 C 272.670 135.405,272.927 134.813,273.032 134.731 C 273.407 134.437,275.449 131.502,275.456 131.247 C 275.459 131.105,275.702 130.677,275.994 130.297 L 276.526 129.606 277.570 130.596 C 278.716 131.684,281.437 135.380,281.437 135.850 C 281.437 136.012,281.855 136.669,282.365 137.309 C 282.875 137.949,283.562 138.998,283.890 139.639 C 284.219 140.281,284.820 141.157,285.225 141.586 C 285.631 142.014,286.455 143.241,287.057 144.311 C 287.659 145.382,288.561 146.822,289.061 147.512 C 289.561 148.202,290.442 149.515,291.018 150.429 C 291.594 151.343,292.149 152.092,292.250 152.093 C 292.351 152.095,292.652 152.668,292.920 153.368 C 293.187 154.068,293.882 155.180,294.463 155.838 C 295.044 156.497,295.916 157.852,296.401 158.850 C 296.885 159.848,297.570 160.925,297.924 161.245 C 298.277 161.565,298.839 162.365,299.171 163.024 C 299.504 163.683,300.214 164.828,300.750 165.569 C 301.285 166.310,302.102 167.657,302.564 168.563 C 303.027 169.469,303.763 170.546,304.200 170.958 C 304.638 171.370,305.355 172.448,305.795 173.353 C 306.234 174.259,307.156 175.808,307.844 176.796 C 310.005 179.902,310.684 180.946,311.518 182.441 C 311.964 183.240,312.687 184.271,313.126 184.731 C 313.564 185.191,314.315 186.323,314.795 187.245 C 315.276 188.168,315.752 188.922,315.855 188.922 C 315.957 188.922,316.436 189.697,316.918 190.644 C 317.400 191.591,318.301 193.018,318.919 193.817 C 319.538 194.615,320.373 195.962,320.775 196.811 C 321.177 197.659,321.857 198.683,322.286 199.085 C 322.716 199.488,323.423 200.566,323.859 201.480 C 324.294 202.395,324.952 203.481,325.321 203.892 C 325.691 204.304,326.359 205.314,326.808 206.138 C 327.256 206.961,328.010 208.021,328.482 208.494 C 328.955 208.966,329.341 209.479,329.341 209.633 C 329.341 210.343,330.604 212.552,331.708 213.772 C 332.378 214.513,332.928 215.270,332.930 215.454 C 332.934 215.795,335.310 219.558,337.274 222.338 C 337.869 223.179,338.704 224.526,339.130 225.332 C 339.556 226.137,340.281 227.229,340.741 227.758 C 341.201 228.286,341.946 229.364,342.395 230.153 C 342.845 230.942,343.454 231.859,343.749 232.191 C 344.043 232.523,344.613 233.412,345.014 234.167 C 345.415 234.921,346.235 236.183,346.836 236.970 C 347.437 237.757,348.122 238.864,348.358 239.429 C 348.594 239.994,349.255 241.002,349.827 241.670 C 350.398 242.338,350.949 243.262,351.050 243.724 C 351.152 244.186,351.549 244.903,351.934 245.318 C 352.605 246.042,352.764 247.963,352.225 248.835 C 352.135 248.982,352.933 249.102,353.999 249.102 C 355.066 249.102,355.983 248.971,356.038 248.811 C 356.093 248.651,356.475 248.459,356.886 248.384 C 357.298 248.309,357.702 248.222,357.784 248.190 C 357.867 248.159,358.030 248.147,358.148 248.165 C 358.265 248.182,358.276 247.974,358.172 247.702 C 358.062 247.416,358.105 247.283,358.273 247.387 C 358.441 247.491,358.539 247.195,358.504 246.688 C 358.456 245.992,358.566 245.808,359.032 245.808 C 359.752 245.808,360.634 245.354,361.400 244.588 C 362.024 243.964,362.207 242.936,361.630 243.292 C 361.416 243.424,361.366 243.374,361.498 243.160 C 361.616 242.970,362.209 242.810,362.817 242.805 C 363.425 242.800,364.158 242.616,364.446 242.398 C 365.025 241.958,365.174 241.456,364.624 241.795 C 364.411 241.927,364.360 241.877,364.492 241.664 C 364.609 241.475,364.760 241.031,364.828 240.679 C 364.991 239.831,365.036 239.801,366.207 239.731 C 367.513 239.653,367.802 239.370,367.874 238.101 C 367.947 236.804,367.912 236.834,369.413 236.748 C 370.096 236.709,370.656 236.525,370.657 236.339 C 370.658 236.153,371.063 235.833,371.557 235.629 C 372.051 235.424,372.455 235.122,372.455 234.957 C 372.455 234.792,372.219 234.842,371.931 235.068 C 371.457 235.440,371.446 235.430,371.815 234.958 C 372.040 234.672,372.329 234.503,372.458 234.582 C 372.586 234.662,372.757 234.556,372.837 234.348 C 372.917 234.139,373.362 233.937,373.825 233.899 C 374.288 233.861,374.755 233.686,374.863 233.512 C 374.972 233.337,375.316 233.159,375.629 233.116 C 375.942 233.073,376.331 232.745,376.493 232.387 C 376.656 232.029,376.891 231.737,377.017 231.737 C 377.143 231.737,377.246 231.467,377.246 231.138 C 377.246 230.557,377.440 230.477,378.935 230.437 C 379.334 230.426,379.520 230.273,379.427 230.030 C 379.341 229.806,379.490 229.641,379.780 229.641 C 380.118 229.641,380.264 229.420,380.228 228.967 C 380.120 227.634,380.206 227.545,381.604 227.545 C 382.438 227.545,382.897 227.428,382.784 227.246 C 382.683 227.081,382.708 226.946,382.842 226.946 C 382.975 226.946,383.111 226.459,383.143 225.864 C 383.215 224.549,383.097 224.656,384.731 224.433 C 385.472 224.331,386.126 224.106,386.184 223.931 C 386.243 223.757,386.615 223.490,387.013 223.339 C 387.410 223.188,387.867 222.717,388.029 222.293 C 388.190 221.868,388.457 221.604,388.622 221.706 C 388.787 221.808,388.922 221.749,388.922 221.575 C 388.922 221.400,389.186 221.257,389.509 221.257 C 389.832 221.257,390.391 220.954,390.751 220.584 C 391.111 220.213,391.304 220.089,391.180 220.307 C 390.995 220.634,391.064 220.635,391.578 220.314 C 391.945 220.085,392.091 219.815,391.932 219.657 C 391.484 219.209,391.935 218.563,392.697 218.563 C 393.091 218.563,393.413 218.412,393.413 218.229 C 393.413 218.037,393.680 217.964,394.036 218.057 C 394.490 218.176,394.614 218.105,394.494 217.793 C 394.404 217.558,394.461 217.365,394.620 217.365 C 394.780 217.365,394.910 217.163,394.910 216.916 C 394.910 216.669,395.045 216.467,395.210 216.467 C 395.374 216.467,395.509 216.198,395.509 215.868 C 395.509 215.324,396.284 215.061,397.380 215.234 C 397.504 215.254,397.605 215.127,397.605 214.952 C 397.605 214.778,397.717 214.705,397.854 214.790 C 397.992 214.874,398.132 214.748,398.166 214.508 C 398.369 213.087,398.432 211.931,398.466 208.982 L 398.503 205.689 399.326 205.653 L 400.150 205.618 399.251 205.389 L 398.353 205.161 399.177 205.125 L 400.000 205.090 400.000 164.371 L 400.000 123.653 399.177 123.617 L 398.353 123.582 399.251 123.353 C 400.129 123.130,400.132 123.124,399.365 123.089 C 398.695 123.059,398.553 122.885,398.396 121.904 C 398.223 120.825,398.152 120.758,397.235 120.819 C 395.811 120.913,395.295 120.542,395.359 119.473 C 395.424 118.374,395.090 118.054,393.539 117.732 C 392.559 117.528,392.365 117.367,392.365 116.753 C 392.365 115.641,391.377 114.671,390.244 114.671 C 389.318 114.671,389.270 114.611,389.082 113.249 C 388.918 112.054,388.782 111.823,388.231 111.805 C 386.133 111.736,384.974 111.272,385.231 110.603 C 385.300 110.423,385.115 110.086,384.819 109.853 C 384.319 109.461,384.313 109.471,384.731 110.003 C 385.156 110.545,385.145 110.554,384.525 110.168 C 384.165 109.944,383.940 109.649,384.024 109.513 C 384.108 109.378,384.065 109.304,383.929 109.349 C 383.517 109.486,382.299 108.085,382.520 107.727 C 382.646 107.524,382.592 107.476,382.382 107.606 C 381.921 107.891,381.940 107.413,382.410 106.886 C 382.724 106.534,382.707 106.524,382.308 106.823 C 381.692 107.285,381.330 106.929,381.814 106.338 C 382.077 106.016,381.940 106.043,381.348 106.429 C 380.716 106.840,380.532 106.871,380.599 106.556 C 380.652 106.307,380.468 106.156,380.144 106.183 C 379.837 106.208,379.659 106.074,379.735 105.875 C 379.827 105.635,379.451 105.531,378.558 105.550 C 377.571 105.571,377.236 105.461,377.207 105.109 C 377.185 104.851,377.147 104.304,377.122 103.892 C 377.054 102.794,376.647 102.212,376.314 102.737 C 376.125 103.036,376.056 103.045,376.052 102.769 C 376.050 102.542,375.636 102.395,375.000 102.395 C 374.014 102.395,373.952 102.337,373.952 101.405 C 373.952 100.025,373.407 99.447,372.006 99.342 C 370.902 99.259,370.801 99.177,370.716 98.301 C 370.608 97.184,370.274 96.854,368.885 96.496 C 368.081 96.288,367.784 96.007,367.512 95.196 C 366.794 93.054,364.721 92.775,364.721 94.821 C 364.721 96.440,364.331 96.859,362.547 97.160 C 361.904 97.269,361.377 97.472,361.377 97.611 C 361.377 97.750,361.115 97.947,360.794 98.049 C 360.473 98.151,360.135 98.463,360.044 98.743 C 359.952 99.023,359.171 99.695,358.307 100.237 C 357.443 100.778,356.003 101.890,355.105 102.707 C 354.208 103.523,353.355 104.192,353.209 104.192 C 353.063 104.192,352.494 104.655,351.944 105.221 C 351.394 105.787,350.401 106.594,349.737 107.013 C 349.072 107.433,348.390 108.034,348.221 108.350 C 348.052 108.666,347.238 109.341,346.412 109.849 C 345.586 110.357,344.910 110.888,344.910 111.029 C 344.910 111.418,343.999 112.355,342.665 113.339 C 342.006 113.824,341.198 114.471,340.869 114.776 C 340.539 115.081,339.798 115.686,339.222 116.120 C 338.645 116.554,337.567 117.482,336.826 118.182 C 336.085 118.881,335.319 119.456,335.122 119.458 C 334.926 119.459,334.181 120.034,333.467 120.734 C 332.753 121.433,331.599 122.378,330.904 122.834 C 330.209 123.289,329.641 123.791,329.641 123.949 C 329.641 124.107,329.270 124.433,328.817 124.673 C 328.365 124.913,327.416 125.678,326.710 126.373 C 324.879 128.174,322.310 129.423,321.772 128.774 C 320.579 127.336,320.569 126.503,321.557 111.826 C 321.723 109.356,321.861 106.123,321.864 104.641 C 321.866 103.159,322.003 101.012,322.168 99.869 C 322.445 97.954,322.664 92.455,323.361 69.910 C 323.503 65.299,323.712 60.417,323.824 59.061 C 324.148 55.152,322.950 53.187,321.447 55.163 M324.463 132.939 C 324.662 133.101,324.956 133.234,325.116 133.234 C 325.276 133.234,325.584 133.408,325.802 133.622 C 326.020 133.836,326.804 134.426,327.545 134.934 C 328.286 135.443,329.148 136.142,329.460 136.489 C 329.773 136.836,330.609 137.461,331.320 137.877 C 332.030 138.294,332.718 138.810,332.848 139.025 C 332.978 139.239,333.825 139.979,334.731 140.668 C 335.636 141.358,337.320 142.666,338.473 143.574 C 339.626 144.483,341.454 145.820,342.537 146.546 C 343.619 147.271,344.689 148.087,344.915 148.359 C 345.140 148.631,345.939 149.264,346.689 149.766 C 347.440 150.268,348.391 151.001,348.802 151.395 C 349.214 151.789,350.109 152.478,350.791 152.927 C 351.472 153.375,352.617 154.261,353.334 154.896 C 354.052 155.530,355.037 156.255,355.523 156.506 C 356.010 156.758,356.549 157.124,356.722 157.319 C 356.895 157.515,357.622 158.291,358.339 159.044 C 359.804 160.585,359.808 160.918,358.383 162.575 C 357.888 163.151,357.413 163.837,357.329 164.099 C 357.245 164.361,356.807 164.765,356.357 164.997 C 355.907 165.229,354.967 165.946,354.268 166.589 C 353.569 167.233,352.626 167.989,352.172 168.269 C 351.719 168.550,350.909 169.204,350.374 169.722 C 349.838 170.241,348.760 171.061,347.979 171.544 C 347.197 172.028,346.088 172.970,345.516 173.637 C 344.943 174.304,344.298 174.850,344.082 174.850 C 343.866 174.850,343.145 175.389,342.480 176.048 C 341.814 176.707,341.124 177.246,340.946 177.246 C 340.769 177.246,339.863 177.953,338.934 178.817 C 338.005 179.682,336.847 180.658,336.362 180.986 C 335.876 181.314,334.948 182.098,334.299 182.729 C 333.650 183.360,332.775 184.055,332.353 184.275 C 331.932 184.494,331.303 184.989,330.956 185.376 C 330.609 185.762,329.936 186.347,329.459 186.677 C 328.983 187.006,328.010 187.848,327.297 188.548 C 326.584 189.248,325.872 189.820,325.715 189.820 C 325.558 189.820,325.063 190.191,324.616 190.644 C 323.077 192.202,322.346 192.528,321.442 192.059 C 320.164 191.396,319.907 190.953,319.967 189.521 C 320.204 183.913,320.624 161.890,320.669 152.695 C 320.731 139.914,321.075 133.257,321.740 131.971 L 322.186 131.110 323.144 131.877 C 323.671 132.299,324.265 132.776,324.463 132.939 M228.167 209.439 C 228.129 209.936,229.019 211.047,229.731 211.391 C 230.340 211.686,230.349 211.677,229.847 211.273 C 229.497 210.990,229.419 210.766,229.628 210.637 C 229.805 210.527,229.868 210.306,229.769 210.144 C 229.657 209.963,229.405 210.000,229.109 210.240 C 228.698 210.574,228.659 210.552,228.833 210.089 C 228.944 209.793,228.913 209.625,228.765 209.717 C 228.616 209.809,228.426 209.715,228.343 209.508 C 228.259 209.301,228.180 209.270,228.167 209.439 M252.318 240.763 C 252.522 241.016,252.601 241.311,252.492 241.420 C 252.384 241.528,252.461 241.617,252.662 241.617 C 252.864 241.617,252.933 241.772,252.816 241.962 C 252.683 242.177,252.734 242.227,252.949 242.094 C 253.338 241.854,252.959 240.913,252.319 240.528 C 252.022 240.350,252.022 240.398,252.318 240.763 M254.374 242.162 C 254.291 242.297,254.485 242.633,254.806 242.908 C 255.127 243.183,255.389 243.270,255.389 243.101 C 255.389 242.933,255.188 242.718,254.942 242.624 C 254.696 242.529,254.569 242.332,254.660 242.184 C 254.751 242.037,254.758 241.916,254.676 241.916 C 254.594 241.916,254.458 242.027,254.374 242.162 M262.571 252.688 C 262.745 253.013,263.188 253.435,263.555 253.625 C 264.111 253.912,264.075 253.814,263.342 253.033 C 262.323 251.947,262.128 251.860,262.571 252.688 M310.824 252.931 C 310.261 253.524,310.202 253.727,310.525 253.951 C 310.796 254.139,310.683 254.164,310.180 254.028 C 309.601 253.871,309.509 253.907,309.774 254.186 C 310.184 254.618,311.228 254.476,311.228 253.988 C 311.228 253.798,311.350 253.530,311.500 253.393 C 311.658 253.248,311.682 253.301,311.557 253.518 C 311.439 253.724,311.471 253.892,311.630 253.892 C 311.788 253.892,312.049 253.515,312.209 253.055 C 312.595 251.947,311.824 251.878,310.824 252.931 M307.793 254.180 C 307.551 254.333,307.457 254.563,307.585 254.691 C 307.713 254.818,307.939 254.726,308.088 254.485 C 308.303 254.136,308.434 254.123,308.730 254.419 C 308.935 254.623,309.243 254.786,309.416 254.781 C 309.589 254.776,309.469 254.574,309.149 254.332 C 308.472 253.819,308.380 253.809,307.793 254.180 M304.610 254.840 C 304.525 254.978,304.733 255.090,305.072 255.090 C 305.411 255.090,305.689 254.978,305.689 254.840 C 305.689 254.703,305.481 254.591,305.226 254.591 C 304.972 254.591,304.695 254.703,304.610 254.840 " stroke="none" fill="#3d3b95" fill-rule="evenodd"></path><path id="path1" d="M284.656 47.629 C 284.368 47.797,284.132 47.843,284.132 47.733 C 284.132 47.622,283.904 47.716,283.625 47.942 C 283.281 48.222,283.191 48.233,283.343 47.979 C 283.467 47.773,283.437 47.605,283.276 47.605 C 282.845 47.605,282.696 48.228,282.864 49.326 C 282.946 49.862,282.894 50.318,282.749 50.342 C 282.604 50.365,281.475 50.442,280.240 50.512 C 276.881 50.704,276.692 50.730,276.843 50.973 C 276.919 51.097,276.866 51.198,276.724 51.198 C 276.583 51.198,276.467 51.665,276.467 52.236 C 276.467 53.602,276.557 53.557,273.574 53.672 C 270.637 53.785,270.541 53.834,270.491 55.257 C 270.443 56.653,270.444 56.652,267.530 56.687 C 266.122 56.704,264.970 56.831,264.970 56.970 C 264.970 57.108,264.815 57.125,264.624 57.007 C 264.406 56.872,264.360 56.926,264.500 57.152 C 264.622 57.350,264.560 57.707,264.362 57.946 C 264.163 58.185,264.069 58.638,264.151 58.952 C 264.330 59.637,263.548 59.856,261.523 59.687 C 260.717 59.620,260.180 59.700,260.180 59.888 C 260.180 60.102,259.988 60.098,259.574 59.876 C 259.105 59.626,258.863 59.657,258.504 60.016 C 258.173 60.347,258.149 60.479,258.422 60.479 C 258.718 60.479,258.723 60.559,258.443 60.838 C 258.246 61.036,258.084 61.493,258.084 61.854 C 258.084 62.692,257.739 62.807,255.539 62.699 C 252.996 62.575,252.265 62.918,252.167 64.282 C 252.064 65.710,252.151 65.661,249.471 65.792 C 246.263 65.948,246.133 65.966,246.297 66.232 C 246.377 66.361,246.334 66.467,246.200 66.467 C 245.475 66.468,245.996 68.804,246.890 69.557 C 247.402 69.989,247.889 70.275,247.972 70.191 C 248.055 70.108,248.085 70.392,248.038 70.822 C 247.984 71.312,248.172 71.791,248.542 72.105 C 249.943 73.292,250.898 74.342,250.898 74.694 C 250.898 75.479,252.144 77.849,252.718 78.156 C 253.046 78.332,253.702 79.311,254.174 80.331 C 254.647 81.351,255.295 82.402,255.614 82.667 C 255.933 82.932,256.649 83.942,257.203 84.911 C 257.758 85.881,258.509 86.950,258.873 87.287 C 259.236 87.623,259.864 88.647,260.269 89.562 C 260.673 90.477,261.285 91.487,261.627 91.806 C 261.970 92.125,262.728 93.324,263.313 94.471 C 263.898 95.618,264.830 96.961,265.385 97.455 C 265.939 97.949,266.607 98.757,266.867 99.251 C 267.264 100.004,267.343 100.048,267.353 99.526 C 267.393 97.469,269.005 94.012,269.926 94.012 C 270.375 94.012,270.411 93.888,270.973 90.427 C 271.358 88.055,271.661 87.302,272.571 86.460 C 273.346 85.742,273.952 84.506,273.952 83.642 C 273.952 82.650,275.564 79.177,276.124 78.962 C 276.378 78.865,276.647 78.280,276.731 77.642 C 277.114 74.750,278.211 72.455,279.212 72.455 C 279.413 72.455,279.650 71.950,279.738 71.332 C 280.297 67.415,280.715 66.265,282.024 65.045 C 282.350 64.742,282.836 63.625,283.104 62.562 C 283.616 60.539,284.477 58.854,285.208 58.445 C 285.631 58.208,286.511 53.852,286.522 51.937 C 286.526 51.172,286.652 51.018,287.320 50.963 C 288.668 50.852,289.524 49.509,288.608 48.943 C 288.394 48.810,288.405 48.615,288.645 48.327 C 288.838 48.094,288.878 47.902,288.734 47.900 C 288.591 47.897,288.647 47.785,288.859 47.650 C 289.092 47.502,288.706 47.405,287.886 47.405 C 287.139 47.405,286.527 47.544,286.527 47.715 C 286.527 47.900,286.383 47.880,286.168 47.665 C 285.735 47.232,285.353 47.223,284.656 47.629 M326.825 48.135 C 327.170 48.431,327.516 48.864,327.593 49.097 C 327.712 49.452,327.762 49.448,327.906 49.073 C 328.019 48.780,327.753 48.448,327.138 48.111 C 326.229 47.613,326.218 47.614,326.825 48.135 M328.467 51.123 C 328.480 51.411,328.556 51.486,328.636 51.289 C 328.716 51.093,328.997 51.015,329.260 51.116 C 329.578 51.238,329.666 51.182,329.522 50.949 C 329.190 50.411,328.440 50.534,328.467 51.123 M329.940 51.113 C 329.940 51.176,330.148 51.629,330.401 52.119 C 330.655 52.610,330.782 53.142,330.683 53.302 C 330.584 53.462,330.714 53.593,330.970 53.593 C 331.570 53.593,331.572 52.880,330.974 52.383 C 330.604 52.076,330.589 51.949,330.899 51.753 C 331.216 51.551,331.216 51.505,330.896 51.502 C 330.680 51.499,330.573 51.385,330.658 51.248 C 330.743 51.110,330.616 50.998,330.376 50.998 C 330.136 50.998,329.940 51.050,329.940 51.113 M326.400 66.542 C 326.054 67.324,325.646 67.964,325.495 67.964 C 325.342 67.964,325.194 70.179,325.160 72.979 C 325.126 75.737,325.059 78.600,325.009 79.341 C 324.960 80.082,324.826 89.379,324.713 100.000 C 324.599 110.621,324.383 120.120,324.231 121.108 C 323.831 123.723,323.875 124.187,324.540 124.398 C 325.334 124.650,326.234 124.121,326.706 123.126 C 326.949 122.615,327.684 122.023,328.654 121.557 C 329.511 121.145,330.218 120.710,330.226 120.589 C 330.260 120.036,332.311 118.318,333.342 117.978 C 334.191 117.698,334.598 117.338,334.908 116.596 C 335.226 115.835,335.607 115.510,336.487 115.246 C 337.318 114.997,337.764 114.639,338.060 113.984 C 338.488 113.036,338.709 112.869,340.344 112.264 C 341.802 111.724,341.629 108.437,340.054 106.747 C 339.748 106.418,339.417 105.810,339.318 105.395 C 339.220 104.980,339.039 104.506,338.916 104.341 C 338.794 104.177,338.617 103.570,338.522 102.994 C 337.949 99.494,337.375 97.242,336.759 96.082 C 336.373 95.355,335.814 93.615,335.517 92.216 C 335.219 90.816,334.505 88.679,333.931 87.466 C 332.773 85.022,332.816 85.177,332.142 80.990 C 331.817 78.977,331.389 77.508,330.832 76.499 C 329.837 74.697,329.402 73.358,329.223 71.557 C 328.756 66.835,328.293 65.080,327.763 66.020 C 327.439 66.595,327.419 66.589,327.229 65.868 C 327.044 65.168,326.990 65.212,326.400 66.542 M325.287 66.487 C 325.179 66.663,325.162 66.878,325.250 66.966 C 325.464 67.181,326.048 66.803,326.048 66.449 C 326.048 66.067,325.531 66.092,325.287 66.487 M241.916 72.156 C 242.336 72.427,242.115 72.592,241.491 72.474 C 241.340 72.445,241.372 72.610,241.563 72.840 C 241.755 73.070,241.811 73.369,241.689 73.504 C 241.567 73.638,241.638 73.650,241.846 73.530 C 242.055 73.410,242.157 73.201,242.072 73.065 C 241.988 72.929,242.151 72.729,242.433 72.620 C 242.970 72.414,242.485 71.865,241.766 71.865 C 241.602 71.865,241.669 71.996,241.916 72.156 M348.353 72.754 C 348.120 73.489,348.445 74.620,348.850 74.485 C 349.013 74.431,349.103 74.255,349.049 74.094 C 348.996 73.934,348.869 73.830,348.768 73.864 C 348.667 73.897,348.631 73.527,348.688 73.040 C 348.806 72.025,348.632 71.876,348.353 72.754 M349.800 76.227 C 349.800 76.497,349.975 76.606,350.242 76.503 C 350.589 76.370,350.610 76.422,350.338 76.750 C 349.947 77.222,350.640 78.039,351.159 77.719 C 351.317 77.621,351.491 77.678,351.547 77.845 C 351.603 78.013,351.838 77.845,352.070 77.473 C 352.469 76.833,352.461 76.821,351.938 77.246 C 351.435 77.654,351.403 77.646,351.587 77.155 C 351.700 76.853,351.668 76.691,351.514 76.786 C 351.363 76.879,351.155 76.820,351.052 76.653 C 350.678 76.048,349.800 75.749,349.800 76.227 M352.395 78.930 C 352.395 78.978,352.766 79.384,353.219 79.831 C 353.671 80.279,353.818 80.480,353.545 80.278 C 353.158 79.993,352.998 79.991,352.825 80.271 C 352.690 80.489,352.728 80.553,352.922 80.434 C 353.098 80.325,353.288 80.373,353.344 80.540 C 353.490 80.978,354.618 81.136,355.115 80.789 C 355.424 80.574,355.442 80.454,355.181 80.347 C 354.985 80.267,354.890 80.029,354.971 79.819 C 355.051 79.609,354.883 79.247,354.597 79.015 C 354.311 78.783,354.167 78.744,354.278 78.930 C 354.406 79.143,354.209 79.266,353.743 79.266 C 353.337 79.266,353.064 79.171,353.136 79.054 C 353.208 78.938,353.071 78.842,352.831 78.842 C 352.591 78.842,352.395 78.882,352.395 78.930 M354.574 79.578 C 354.651 79.366,354.698 79.540,354.678 79.965 C 354.657 80.390,354.478 80.738,354.280 80.739 C 354.081 80.739,353.992 80.620,354.081 80.476 C 354.170 80.331,354.063 79.983,353.843 79.702 C 353.488 79.249,353.499 79.235,353.938 79.578 C 354.342 79.894,354.459 79.894,354.574 79.578 M234.731 82.036 C 234.401 82.365,234.141 82.803,234.152 83.009 C 234.163 83.215,234.316 83.085,234.492 82.721 C 234.668 82.357,235.164 81.929,235.595 81.772 C 236.112 81.582,236.199 81.476,235.853 81.461 C 235.565 81.448,235.060 81.707,234.731 82.036 M235.703 82.725 C 234.695 83.717,234.346 84.517,235.237 83.794 C 235.581 83.515,235.672 83.503,235.519 83.757 C 235.376 83.995,235.471 84.132,235.778 84.132 C 236.086 84.132,236.181 83.995,236.038 83.757 C 235.871 83.480,235.938 83.484,236.296 83.774 C 236.838 84.214,236.895 83.760,236.397 82.963 C 236.218 82.675,236.244 82.610,236.481 82.756 C 236.699 82.891,236.826 82.743,236.826 82.353 C 236.826 81.589,236.875 81.573,235.703 82.725 M231.952 87.639 C 232.070 87.947,232.018 88.048,231.808 87.918 C 231.627 87.806,231.400 87.842,231.303 87.998 C 230.960 88.553,231.665 88.599,232.159 88.054 C 232.593 87.573,232.601 87.476,232.214 87.328 C 231.896 87.206,231.820 87.295,231.952 87.639 M360.308 87.459 C 360.213 87.613,360.314 87.702,360.532 87.657 C 360.750 87.612,360.896 87.738,360.857 87.938 C 360.815 88.152,360.974 88.229,361.244 88.126 C 361.496 88.029,361.655 87.810,361.598 87.639 C 361.462 87.231,360.530 87.101,360.308 87.459 M363.497 90.476 C 363.484 90.755,363.617 91.072,363.793 91.180 C 363.969 91.289,364.038 91.573,363.946 91.812 C 363.853 92.055,363.910 92.166,364.075 92.064 C 364.238 91.963,364.371 92.024,364.371 92.198 C 364.371 92.372,364.506 92.515,364.671 92.515 C 365.128 92.515,365.029 92.092,364.417 91.435 C 364.112 91.108,363.786 90.645,363.692 90.406 C 363.557 90.063,363.515 90.078,363.497 90.476 M291.718 95.810 C 291.032 95.910,290.291 96.130,290.071 96.299 C 289.633 96.636,286.101 97.740,284.431 98.062 C 283.855 98.174,282.626 98.644,281.700 99.108 C 280.775 99.572,279.360 100.034,278.556 100.134 C 275.307 100.539,271.707 101.379,271.030 101.889 C 270.823 102.046,269.812 102.275,268.785 102.398 C 267.757 102.522,266.135 102.841,265.180 103.108 C 264.225 103.375,262.918 103.593,262.275 103.593 C 261.632 103.593,260.797 103.719,260.418 103.873 C 260.040 104.027,259.249 104.231,258.660 104.326 C 258.072 104.421,257.331 104.740,257.014 105.034 C 256.436 105.571,255.560 105.849,251.647 106.737 C 249.530 107.217,248.910 107.437,247.006 108.385 C 246.430 108.672,245.036 108.996,243.908 109.105 C 241.105 109.377,238.832 110.007,237.011 111.018 C 235.407 111.908,233.996 112.278,229.426 113.010 C 227.564 113.308,226.298 113.692,225.534 114.190 C 224.295 114.997,221.709 115.572,220.060 115.407 C 219.484 115.349,218.174 115.237,217.149 115.159 L 215.286 115.017 215.274 145.063 C 215.265 166.183,215.357 175.168,215.583 175.308 C 215.760 175.418,216.030 175.837,216.183 176.239 C 216.336 176.642,216.866 177.201,217.361 177.482 C 218.246 177.986,218.260 178.032,218.279 180.539 C 218.290 181.939,218.362 183.623,218.439 184.281 C 218.516 184.940,218.575 185.832,218.569 186.264 C 218.556 187.280,219.235 187.826,220.313 187.667 L 221.170 187.542 221.362 191.450 C 221.700 198.357,221.954 199.256,223.666 199.599 L 224.551 199.775 224.585 202.358 C 224.633 205.886,224.609 205.784,225.449 206.019 C 227.260 206.524,227.477 206.400,227.874 204.624 C 228.232 203.024,229.419 201.497,230.304 201.497 C 230.730 201.497,231.416 200.566,231.428 199.972 C 231.433 199.710,232.138 198.497,232.995 197.277 C 233.852 196.058,234.919 194.306,235.366 193.384 C 235.813 192.463,236.388 191.499,236.645 191.243 C 236.901 190.986,237.608 189.921,238.217 188.876 C 238.825 187.831,239.611 186.572,239.964 186.078 C 240.316 185.584,240.910 184.561,241.283 183.805 C 241.656 183.048,242.300 182.065,242.713 181.620 C 243.126 181.175,243.847 179.974,244.317 178.953 C 244.786 177.932,245.482 176.751,245.863 176.330 C 246.245 175.909,246.769 175.168,247.028 174.683 C 247.773 173.288,248.341 172.318,248.506 172.156 C 248.894 171.774,250.235 169.536,250.416 168.968 C 250.526 168.619,250.986 167.947,251.437 167.475 C 252.232 166.643,252.770 165.649,253.606 163.473 C 253.827 162.897,254.420 161.804,254.923 161.044 C 256.806 158.201,258.261 155.844,259.139 154.213 C 259.637 153.288,260.479 152.076,261.010 151.521 C 261.541 150.965,261.976 150.388,261.976 150.239 C 261.976 149.649,263.167 147.400,263.897 146.613 C 264.321 146.154,264.941 145.181,265.274 144.451 C 265.607 143.720,266.256 142.682,266.717 142.145 C 267.571 141.147,268.563 139.261,268.563 138.632 C 268.563 138.440,269.015 137.854,269.568 137.330 C 270.121 136.806,271.023 135.443,271.573 134.300 C 272.122 133.158,272.931 131.811,273.370 131.306 C 273.809 130.802,274.394 129.950,274.669 129.413 C 274.944 128.876,275.631 128.135,276.197 127.766 C 276.948 127.276,277.402 126.624,277.881 125.345 C 278.242 124.383,278.998 123.107,279.561 122.510 C 280.418 121.602,281.737 119.312,281.737 118.732 C 281.737 118.587,282.213 117.957,283.084 116.953 C 283.249 116.763,283.653 116.071,283.982 115.416 C 284.311 114.760,284.955 113.854,285.413 113.401 C 285.871 112.948,286.662 111.677,287.171 110.577 C 287.680 109.478,288.427 108.231,288.830 107.807 C 289.234 107.383,289.829 106.482,290.154 105.806 C 290.479 105.130,290.990 104.313,291.289 103.992 C 291.588 103.670,292.203 102.742,292.655 101.928 C 293.106 101.115,293.573 100.314,293.691 100.150 C 293.810 99.985,294.250 99.040,294.668 98.050 C 295.722 95.559,295.353 95.279,291.718 95.810 M225.622 97.579 C 225.330 97.902,225.185 98.317,225.299 98.502 C 225.440 98.731,225.626 98.675,225.882 98.325 C 226.088 98.043,226.400 97.901,226.575 98.010 C 226.760 98.124,226.862 97.993,226.819 97.697 C 226.710 96.955,226.230 96.908,225.622 97.579 M220.264 106.897 C 219.503 107.496,219.253 108.744,219.948 108.477 C 220.424 108.294,220.715 107.518,220.461 107.108 C 220.335 106.904,220.442 106.854,220.750 106.972 C 221.275 107.174,221.744 106.738,221.298 106.462 C 221.150 106.370,220.684 106.566,220.264 106.897 " stroke="none" fill="#d12d65" fill-rule="evenodd"></path><path id="path2" d="M275.933 130.379 C 275.667 130.785,275.449 131.204,275.449 131.312 C 275.449 131.518,273.359 134.475,273.032 134.731 C 272.927 134.813,272.670 135.405,272.461 136.047 C 272.251 136.689,271.558 137.694,270.920 138.280 C 270.282 138.867,269.760 139.517,269.760 139.724 C 269.760 140.555,268.247 143.341,267.421 144.029 C 266.938 144.431,266.451 145.183,266.339 145.698 C 266.227 146.214,265.698 147.157,265.163 147.794 C 264.627 148.431,263.819 149.721,263.367 150.660 C 262.914 151.599,262.133 152.714,261.630 153.137 C 261.087 153.594,260.548 154.463,260.303 155.279 C 259.813 156.907,259.007 158.274,257.953 159.264 C 257.531 159.660,257.186 160.162,257.186 160.380 C 257.186 160.597,256.570 161.400,255.817 162.163 C 255.065 162.926,254.121 164.292,253.720 165.198 C 253.320 166.105,252.521 167.367,251.945 168.005 C 251.369 168.642,250.898 169.352,250.898 169.582 C 250.898 169.812,250.427 170.700,249.850 171.557 C 249.274 172.413,248.802 173.235,248.802 173.383 C 248.802 173.532,248.668 173.653,248.503 173.653 C 248.338 173.653,248.204 173.783,248.204 173.942 C 248.204 174.270,246.943 176.293,245.771 177.849 C 245.338 178.423,244.827 179.384,244.635 179.984 C 244.443 180.585,244.007 181.393,243.668 181.781 C 242.668 182.921,241.317 184.961,241.317 185.330 C 241.317 185.517,240.711 186.521,239.970 187.559 C 239.229 188.598,238.623 189.599,238.623 189.784 C 238.623 189.968,238.488 190.120,238.323 190.120 C 238.159 190.120,238.024 190.305,238.024 190.531 C 238.024 190.758,237.552 191.458,236.976 192.087 C 236.400 192.716,235.928 193.359,235.928 193.517 C 235.928 194.024,234.369 197.006,234.104 197.006 C 233.963 197.006,233.623 197.444,233.349 197.979 C 233.075 198.514,232.759 199.019,232.647 199.102 C 232.535 199.184,232.213 199.838,231.930 200.556 C 231.350 202.028,231.026 202.403,229.898 202.901 C 227.876 203.795,226.879 208.811,228.293 210.970 C 228.737 211.647,229.124 211.924,228.967 211.452 C 228.854 211.113,229.258 211.045,230.114 211.260 C 230.745 211.419,230.852 211.582,230.706 212.164 C 230.573 212.693,230.652 212.874,231.014 212.874 C 231.360 212.874,231.439 213.026,231.286 213.398 C 230.922 214.285,230.969 214.749,231.437 214.912 C 231.836 215.050,231.836 215.007,231.437 214.521 C 231.018 214.010,231.032 213.997,231.645 214.324 C 232.006 214.516,232.385 214.808,232.486 214.972 C 232.587 215.135,232.941 215.269,233.271 215.269 C 233.739 215.269,233.830 215.404,233.680 215.875 C 233.433 216.654,233.814 218.478,234.121 217.982 C 234.292 217.704,234.441 217.714,234.762 218.022 C 234.992 218.243,235.516 218.417,235.928 218.407 C 236.594 218.392,236.682 218.520,236.724 219.556 C 236.775 220.844,237.154 221.388,238.039 221.445 C 238.360 221.465,238.892 221.499,239.222 221.519 C 239.665 221.547,239.821 221.770,239.824 222.380 C 239.834 224.220,240.089 224.551,241.502 224.551 L 242.814 224.551 242.814 226.217 C 242.814 227.134,242.963 228.161,243.145 228.501 C 243.398 228.975,243.381 229.178,243.070 229.375 C 242.746 229.580,242.744 229.632,243.057 229.636 C 243.272 229.639,243.363 229.779,243.259 229.948 C 243.155 230.116,243.180 230.235,243.316 230.211 C 243.452 230.188,243.630 230.194,243.713 230.225 C 243.795 230.256,244.248 230.331,244.719 230.393 C 245.828 230.538,245.842 230.558,245.862 232.004 C 245.874 232.843,246.011 233.234,246.293 233.234 C 246.520 233.234,246.707 233.348,246.707 233.487 C 246.707 233.627,247.125 233.753,247.636 233.768 C 248.802 233.801,248.854 233.858,248.891 235.161 C 248.922 236.244,249.838 236.819,251.542 236.825 C 251.909 236.826,252.041 237.114,252.056 237.949 C 252.123 241.741,252.148 242.016,252.396 241.615 C 252.539 241.385,252.589 241.089,252.507 240.957 C 252.426 240.826,252.430 240.719,252.517 240.719 C 252.603 240.719,252.826 241.004,253.013 241.353 C 253.200 241.703,253.227 241.911,253.074 241.816 C 252.920 241.721,252.794 241.821,252.794 242.038 C 252.794 242.273,253.016 242.375,253.343 242.289 C 253.645 242.210,253.892 242.296,253.892 242.480 C 253.892 242.664,254.035 242.814,254.209 242.814 C 254.384 242.814,254.449 242.689,254.354 242.536 C 254.259 242.382,254.340 242.159,254.532 242.040 C 254.739 241.913,254.803 241.953,254.689 242.138 C 254.582 242.311,254.682 242.524,254.912 242.612 C 255.191 242.719,255.308 243.182,255.266 244.008 C 255.231 244.688,255.333 245.325,255.492 245.423 C 255.659 245.526,255.689 245.424,255.563 245.181 C 255.403 244.873,255.451 244.881,255.741 245.210 C 255.959 245.457,256.541 245.703,257.034 245.756 C 258.126 245.875,258.010 245.726,258.123 247.156 C 258.244 248.685,258.620 249.057,259.980 248.993 C 260.774 248.956,261.086 249.067,261.106 249.396 C 261.122 249.646,261.161 250.254,261.195 250.749 C 261.313 252.513,262.173 253.900,263.463 254.407 C 264.206 254.699,264.883 255.251,265.240 255.856 C 265.888 256.954,267.658 257.934,268.564 257.697 C 268.893 257.611,269.162 257.663,269.162 257.812 C 269.162 257.962,269.641 258.084,270.227 258.084 C 270.930 258.084,271.223 257.971,271.088 257.752 C 270.948 257.527,271.098 257.489,271.557 257.635 C 272.075 257.799,272.177 257.754,272.000 257.442 C 271.818 257.124,271.852 257.113,272.154 257.393 C 272.459 257.674,272.798 257.471,273.770 256.425 L 275.000 255.102 289.765 255.036 C 297.886 255.000,304.597 254.862,304.678 254.730 C 304.760 254.598,305.351 254.574,305.992 254.676 C 306.865 254.816,307.282 254.737,307.659 254.360 C 307.935 254.084,308.346 253.933,308.572 254.025 C 308.797 254.117,309.206 254.282,309.480 254.392 C 309.836 254.536,309.911 254.484,309.742 254.210 C 309.565 253.924,309.684 253.878,310.217 254.029 C 310.697 254.165,310.798 254.140,310.527 253.952 C 310.209 253.732,310.287 253.513,310.902 252.898 L 311.677 252.122 323.279 252.088 C 338.458 252.042,343.768 251.878,345.659 251.396 C 345.988 251.312,346.308 251.233,346.369 251.221 C 346.430 251.208,346.310 250.992,346.102 250.742 C 345.790 250.365,345.801 250.316,346.170 250.457 C 346.426 250.555,346.921 250.306,347.335 249.870 C 347.963 249.208,348.306 249.111,350.057 249.107 C 352.295 249.101,352.342 249.067,352.512 247.320 C 352.609 246.323,352.493 245.921,351.934 245.318 C 351.549 244.903,351.152 244.186,351.050 243.724 C 350.949 243.262,350.398 242.338,349.827 241.670 C 349.255 241.002,348.594 239.994,348.358 239.429 C 348.122 238.864,347.437 237.757,346.836 236.970 C 346.235 236.183,345.415 234.921,345.014 234.167 C 344.613 233.412,344.043 232.523,343.749 232.191 C 343.454 231.859,342.845 230.942,342.395 230.153 C 341.946 229.364,341.201 228.286,340.741 227.758 C 340.281 227.229,339.556 226.137,339.130 225.332 C 338.704 224.526,337.869 223.179,337.274 222.338 C 335.310 219.558,332.934 215.795,332.930 215.454 C 332.928 215.270,332.378 214.513,331.708 213.772 C 330.604 212.552,329.341 210.343,329.341 209.633 C 329.341 209.479,328.955 208.966,328.482 208.494 C 328.010 208.021,327.256 206.961,326.808 206.138 C 326.359 205.314,325.691 204.304,325.321 203.892 C 324.952 203.481,324.294 202.395,323.859 201.480 C 323.423 200.566,322.716 199.488,322.286 199.085 C 321.857 198.683,321.177 197.659,320.775 196.811 C 320.373 195.962,319.538 194.615,318.919 193.817 C 318.301 193.018,317.400 191.591,316.918 190.644 C 316.436 189.697,315.957 188.922,315.855 188.922 C 315.752 188.922,315.276 188.168,314.795 187.245 C 314.315 186.323,313.564 185.191,313.126 184.731 C 312.687 184.271,311.964 183.240,311.518 182.441 C 310.684 180.946,310.005 179.902,307.844 176.796 C 307.156 175.808,306.234 174.259,305.795 173.353 C 305.355 172.448,304.638 171.370,304.200 170.958 C 303.763 170.546,303.027 169.469,302.564 168.563 C 302.102 167.657,301.285 166.310,300.750 165.569 C 300.214 164.828,299.504 163.683,299.171 163.024 C 298.839 162.365,298.277 161.565,297.924 161.245 C 297.570 160.925,296.885 159.848,296.401 158.850 C 295.916 157.852,295.044 156.497,294.463 155.838 C 293.882 155.180,293.187 154.068,292.920 153.368 C 292.652 152.668,292.351 152.095,292.250 152.093 C 292.149 152.092,291.594 151.343,291.018 150.429 C 290.442 149.515,289.561 148.202,289.061 147.512 C 288.561 146.822,287.659 145.382,287.057 144.311 C 286.455 143.241,285.631 142.014,285.225 141.586 C 284.820 141.157,284.219 140.281,283.890 139.639 C 283.562 138.998,282.875 137.949,282.365 137.309 C 281.855 136.669,281.437 136.012,281.437 135.850 C 281.437 135.149,277.048 129.641,276.490 129.641 C 276.449 129.641,276.199 129.973,275.933 130.379 M228.765 209.717 C 228.913 209.625,228.944 209.793,228.833 210.089 C 228.655 210.563,228.692 210.579,229.136 210.218 C 229.413 209.992,229.641 209.891,229.641 209.993 C 229.641 210.096,229.641 210.281,229.641 210.404 C 229.641 210.528,229.540 210.631,229.416 210.633 C 229.293 210.636,229.023 210.745,228.817 210.876 C 228.612 211.006,228.433 211.004,228.421 210.871 C 228.409 210.738,228.350 210.292,228.290 209.880 C 228.230 209.469,228.252 209.301,228.338 209.508 C 228.424 209.715,228.616 209.809,228.765 209.717 M263.442 253.154 C 264.584 254.455,264.590 254.536,263.514 254.161 C 262.817 253.918,261.976 252.863,261.976 252.231 C 261.976 251.816,262.627 252.226,263.442 253.154 " stroke="none" fill="#14b0de" fill-rule="evenodd"></path><path id="path3" d="M0.000 57.186 L 0.000 67.066 3.990 67.066 C 7.858 67.066,8.001 67.043,8.683 66.317 C 9.069 65.906,9.699 65.569,10.082 65.569 L 10.778 65.569 10.778 90.868 L 10.778 116.168 5.389 116.168 L 0.000 116.168 0.000 126.048 L 0.000 135.928 5.386 135.928 L 10.772 135.928 10.850 160.287 L 10.928 184.647 7.134 184.816 C 3.247 184.988,2.361 185.214,1.906 186.144 C 1.572 186.829,1.395 249.374,1.724 250.642 C 1.860 251.167,2.219 251.743,2.521 251.921 C 2.823 252.100,3.660 252.818,4.381 253.518 L 5.692 254.790 13.765 254.790 L 21.837 254.790 23.363 253.312 C 24.202 252.499,25.039 251.783,25.222 251.722 C 25.792 251.532,25.996 248.365,26.023 239.296 L 26.048 230.539 27.545 230.539 L 29.042 230.539 29.047 233.159 C 29.052 236.257,29.117 236.391,30.748 236.664 C 31.998 236.873,32.006 236.882,32.095 238.272 L 32.186 239.671 33.608 239.762 L 35.030 239.853 35.030 241.895 C 35.030 245.527,35.162 245.808,36.864 245.808 L 38.323 245.808 38.323 248.332 C 38.323 251.225,38.648 251.796,40.291 251.796 C 41.291 251.796,42.515 252.626,42.515 253.304 C 42.515 254.395,45.122 254.791,52.195 254.774 C 60.190 254.754,60.952 254.607,61.776 252.919 C 62.372 251.699,62.874 251.453,62.874 252.381 C 62.874 254.891,61.990 254.782,82.391 254.786 C 102.097 254.791,101.222 254.888,101.934 252.626 C 102.477 250.900,102.536 235.030,102.003 234.207 C 101.818 233.921,99.639 233.832,92.797 233.832 L 83.832 233.832 83.832 230.689 L 83.832 227.545 93.114 227.545 L 102.395 227.545 102.395 218.992 C 102.395 213.669,102.278 210.221,102.085 209.861 C 101.789 209.308,101.367 209.281,92.804 209.281 L 83.832 209.281 83.832 206.287 L 83.832 203.293 92.754 203.293 C 102.696 203.293,102.378 203.362,102.426 201.213 C 102.454 199.965,102.475 199.928,102.677 200.775 C 102.996 202.109,103.210 202.357,104.281 202.633 L 105.240 202.881 105.389 208.551 C 105.556 214.885,105.559 214.894,107.203 215.157 L 108.383 215.346 108.400 220.023 C 108.425 226.625,108.518 227.025,110.106 227.378 L 111.377 227.660 111.377 230.704 C 111.377 235.947,111.520 236.467,113.021 236.692 L 114.288 236.882 114.479 239.145 C 114.585 240.389,114.671 242.992,114.671 244.928 C 114.671 248.757,115.378 250.689,116.922 251.076 C 117.316 251.175,117.757 251.719,118.081 252.505 C 118.955 254.623,118.979 254.629,127.545 254.735 C 138.493 254.870,138.851 254.670,138.898 248.400 C 138.920 245.411,138.970 245.141,139.524 244.996 C 139.855 244.910,140.528 244.242,141.021 243.512 L 141.916 242.186 141.916 237.521 L 141.916 232.856 143.039 233.041 C 143.656 233.143,144.311 233.228,144.494 233.230 C 144.713 233.232,144.900 234.778,145.042 237.769 C 145.278 242.716,145.777 244.200,147.466 244.970 C 148.182 245.296,148.204 245.399,148.204 248.450 C 148.204 254.588,148.244 254.614,158.084 254.735 C 166.807 254.843,167.816 254.683,168.563 253.075 C 168.869 252.416,169.347 251.998,170.060 251.763 C 171.468 251.301,171.810 250.990,172.130 249.887 L 172.401 248.952 172.428 249.947 C 172.459 251.079,173.746 253.461,174.564 253.899 C 176.430 254.898,180.838 253.851,180.838 252.409 C 180.838 252.217,181.767 252.096,183.234 252.096 C 185.023 252.096,185.629 252.196,185.629 252.493 C 185.629 253.593,187.823 254.596,188.829 253.956 C 190.445 252.929,190.719 251.747,190.719 245.801 C 190.719 238.982,192.025 239.770,180.913 239.884 C 172.177 239.973,171.665 239.922,173.607 239.159 C 175.058 238.589,175.449 237.281,175.449 232.999 C 175.449 230.141,175.475 230.024,176.187 229.700 C 178.164 228.799,178.583 227.348,178.691 221.033 L 178.788 215.269 179.952 215.269 C 181.605 215.269,181.737 214.840,181.737 209.464 C 181.737 204.707,182.146 203.293,183.525 203.293 C 184.502 203.293,184.731 202.332,184.731 198.216 L 184.731 194.080 186.077 193.878 C 187.159 193.716,187.458 193.537,187.601 192.967 C 187.846 191.990,187.629 185.731,187.340 185.443 C 186.257 184.363,165.052 184.530,163.954 185.627 C 163.750 185.830,163.583 187.757,163.520 190.650 C 163.408 195.730,163.277 196.102,161.228 197.161 C 160.686 197.441,160.613 197.865,160.465 201.569 C 160.374 203.823,160.206 205.762,160.090 205.878 C 159.975 205.993,159.880 205.749,159.880 205.336 C 159.880 204.443,159.122 203.687,158.084 203.545 L 157.335 203.443 157.186 197.518 C 157.022 191.028,157.023 191.031,155.176 191.023 L 154.213 191.018 154.128 188.101 L 154.042 185.184 153.144 184.993 C 152.650 184.888,149.921 184.785,147.081 184.766 L 141.916 184.731 141.916 175.781 C 141.916 167.895,141.860 166.809,141.443 166.649 C 141.182 166.549,137.036 166.467,132.229 166.467 L 123.490 166.467 123.496 163.473 L 123.503 160.479 132.350 160.479 C 138.832 160.479,141.294 160.383,141.557 160.120 C 141.820 159.857,141.916 157.412,141.916 150.988 L 141.916 142.216 131.961 142.197 C 126.108 142.185,122.268 142.072,122.642 141.921 C 123.702 141.493,123.943 136.948,122.940 136.296 C 122.756 136.176,126.916 136.010,132.186 135.928 L 141.766 135.778 141.846 126.722 L 141.925 117.665 141.163 117.665 C 140.743 117.665,140.321 117.457,140.223 117.203 C 139.715 115.878,136.438 115.091,134.034 115.718 C 132.619 116.086,129.840 116.168,118.684 116.168 L 105.061 116.168 104.396 116.886 C 103.681 117.657,103.228 117.750,100.449 117.696 C 98.782 117.663,98.616 117.596,98.141 116.762 C 97.448 115.544,96.406 115.184,94.821 115.615 C 92.448 116.261,89.985 116.126,89.874 115.344 C 89.786 114.722,89.894 114.671,91.282 114.671 C 92.174 114.671,92.882 114.516,93.024 114.289 C 93.156 114.079,93.640 113.668,94.100 113.375 C 94.560 113.083,95.060 112.520,95.210 112.125 C 95.448 111.499,95.703 111.396,97.217 111.318 L 98.952 111.228 99.043 109.805 L 99.135 108.383 100.455 108.383 C 101.930 108.383,102.395 107.892,102.395 106.333 C 102.395 105.530,102.511 105.422,103.569 105.243 C 104.955 105.009,105.018 104.882,105.274 101.820 L 105.470 99.465 106.618 99.281 C 108.143 99.037,108.383 98.486,108.383 95.223 C 108.383 92.612,108.413 92.488,109.131 92.161 C 111.063 91.281,111.377 89.939,111.376 82.581 C 111.375 74.699,111.054 73.125,109.347 72.618 L 108.383 72.331 108.383 69.573 C 108.383 66.007,108.322 65.868,106.741 65.868 L 105.462 65.868 105.332 63.135 C 105.188 60.129,104.865 59.581,103.236 59.581 C 102.545 59.581,102.395 59.451,102.395 58.852 C 102.395 57.152,101.911 56.587,100.457 56.587 L 99.102 56.587 99.102 55.449 C 99.102 53.983,98.680 53.593,97.096 53.593 C 95.881 53.593,95.808 53.545,95.808 52.741 C 95.808 51.122,93.583 50.299,89.201 50.299 L 87.194 50.299 86.994 48.968 C 86.732 47.222,86.948 47.248,73.716 47.363 C 62.133 47.464,62.589 47.385,62.579 49.281 L 62.575 50.208 58.476 50.414 C 53.912 50.643,53.593 50.775,53.593 52.432 L 53.593 53.593 52.238 53.593 C 50.790 53.593,50.299 54.159,50.299 55.829 C 50.299 56.453,50.141 56.540,48.833 56.633 L 47.367 56.737 47.258 52.491 C 47.198 50.157,47.047 48.145,46.923 48.021 C 46.365 47.463,42.185 47.348,21.781 47.327 L 0.000 47.305 0.000 57.186 M326.073 47.409 C 326.528 47.787,328.144 48.412,328.144 48.210 C 328.144 48.074,327.719 47.815,327.201 47.634 C 326.244 47.301,325.847 47.221,326.073 47.409 M33.969 66.240 C 34.345 66.777,34.840 66.950,36.456 67.110 C 40.226 67.483,43.345 68.862,40.419 68.862 C 38.282 68.862,38.323 68.591,38.323 82.725 C 38.323 96.617,38.253 96.108,40.180 96.108 L 41.317 96.108 41.317 98.743 C 41.317 101.588,41.540 102.093,42.799 102.100 C 43.972 102.107,44.262 102.440,44.366 103.897 L 44.461 105.240 45.867 105.330 L 47.274 105.421 47.364 106.827 L 47.455 108.234 48.877 108.325 C 50.274 108.414,50.299 108.434,50.299 109.423 C 50.299 111.148,50.514 111.377,52.128 111.377 L 53.593 111.377 53.593 112.538 C 53.593 114.114,54.016 114.367,57.007 114.578 C 59.458 114.751,59.581 114.793,59.581 115.464 C 59.581 116.340,55.157 116.490,52.185 115.714 C 50.098 115.169,49.024 115.480,48.441 116.798 C 48.067 117.643,48.001 117.665,45.808 117.665 C 43.616 117.665,43.550 117.643,43.176 116.798 C 42.592 115.480,41.519 115.169,39.431 115.714 C 38.473 115.965,36.428 116.168,34.866 116.168 L 32.036 116.168 32.036 90.868 L 32.036 65.569 32.767 65.569 C 33.186 65.569,33.700 65.856,33.969 66.240 M81.003 70.204 L 81.204 71.545 82.668 71.739 L 84.132 71.933 84.132 73.082 C 84.132 74.378,84.686 74.850,86.208 74.850 L 87.126 74.850 87.126 82.635 L 87.126 90.419 86.249 90.419 C 85.192 90.419,84.548 91.004,84.284 92.203 C 84.121 92.946,83.905 93.125,82.987 93.277 C 81.245 93.566,81.181 93.617,81.082 94.807 C 81.006 95.716,80.843 95.974,80.240 96.141 C 79.261 96.411,70.792 96.461,67.874 96.215 L 65.598 96.022 65.509 94.643 L 65.419 93.263 64.026 93.173 L 62.633 93.083 62.529 90.393 C 62.415 87.432,62.237 87.138,60.554 87.130 L 59.581 87.126 59.581 82.485 L 59.581 77.844 60.719 77.844 C 62.237 77.844,62.575 77.425,62.575 75.539 C 62.575 74.421,62.692 73.952,62.972 73.952 C 63.350 73.952,63.542 73.786,64.956 72.231 C 65.395 71.748,65.906 71.557,66.756 71.557 C 68.057 71.557,68.563 71.017,68.563 69.630 L 68.563 68.862 74.682 68.862 L 80.802 68.862 81.003 70.204 M345.808 69.461 C 346.138 69.790,346.495 70.060,346.603 70.060 C 346.711 70.060,346.556 69.790,346.257 69.461 C 345.959 69.132,345.602 68.862,345.463 68.862 C 345.323 68.862,345.479 69.132,345.808 69.461 M241.197 72.203 C 241.342 72.439,241.212 72.497,240.788 72.386 C 240.313 72.262,240.207 72.334,240.343 72.688 C 240.460 72.993,240.401 73.078,240.171 72.936 C 239.978 72.817,239.820 72.854,239.820 73.019 C 239.820 73.603,240.320 73.614,240.812 73.039 C 241.087 72.718,241.549 72.453,241.838 72.451 C 242.288 72.447,242.299 72.403,241.916 72.156 C 241.302 71.759,240.937 71.783,241.197 72.203 M347.305 72.156 C 347.048 72.322,347.005 72.448,347.206 72.451 C 347.398 72.453,347.770 72.537,348.033 72.638 C 348.382 72.772,348.460 72.692,348.325 72.339 C 348.112 71.784,347.931 71.751,347.305 72.156 M348.802 72.869 C 348.802 73.281,348.920 73.690,349.064 73.779 C 349.208 73.868,349.326 73.604,349.326 73.193 C 349.326 72.781,349.208 72.371,349.064 72.282 C 348.920 72.193,348.802 72.457,348.802 72.869 M350.673 76.104 C 351.290 76.485,351.737 76.952,351.666 77.143 C 351.520 77.535,352.411 78.443,352.943 78.443 C 353.136 78.443,353.027 78.177,352.701 77.851 C 352.339 77.489,352.185 77.063,352.303 76.754 C 352.445 76.384,352.390 76.315,352.096 76.497 C 351.804 76.677,351.746 76.611,351.882 76.256 C 351.985 75.988,351.920 75.675,351.737 75.562 C 351.526 75.431,351.489 75.494,351.638 75.734 C 351.813 76.018,351.694 76.056,351.160 75.889 C 349.638 75.412,349.587 75.435,350.673 76.104 M353.607 78.727 C 353.368 78.879,353.044 78.923,352.887 78.826 C 352.730 78.729,352.693 78.797,352.804 78.977 C 352.915 79.156,353.263 79.284,353.578 79.260 C 353.893 79.236,354.084 79.110,354.004 78.980 C 353.773 78.606,354.327 78.703,354.791 79.117 C 355.148 79.435,355.151 79.413,354.814 78.967 C 354.363 78.371,354.216 78.342,353.607 78.727 M236.228 81.437 C 236.615 81.688,236.608 81.728,236.174 81.732 C 235.898 81.734,235.453 81.955,235.187 82.221 C 234.920 82.488,234.608 82.612,234.492 82.496 C 234.377 82.381,234.544 82.095,234.863 81.862 C 235.182 81.628,235.310 81.437,235.147 81.437 C 234.541 81.437,234.168 82.151,234.303 83.053 C 234.416 83.804,234.388 83.867,234.159 83.383 C 233.924 82.889,233.871 82.873,233.853 83.291 C 233.813 84.259,234.388 84.129,235.596 82.896 C 236.749 81.720,236.930 81.132,236.135 81.142 C 235.921 81.145,235.958 81.263,236.228 81.437 M363.779 90.354 C 363.791 90.741,364.957 92.075,364.963 91.709 C 364.967 91.513,364.833 91.268,364.666 91.165 C 364.498 91.061,364.430 90.865,364.514 90.729 C 364.598 90.593,364.466 90.405,364.220 90.310 C 363.974 90.216,363.775 90.235,363.779 90.354 M365.569 93.444 C 366.956 93.871,367.289 94.179,367.524 95.252 C 367.808 96.546,368.061 96.069,367.826 94.681 C 367.718 94.039,367.469 93.508,367.273 93.502 C 367.077 93.496,366.377 93.408,365.719 93.306 L 364.521 93.121 365.569 93.444 M225.555 96.635 C 225.667 96.817,225.484 97.157,225.148 97.393 C 224.752 97.670,224.606 97.999,224.733 98.329 C 224.902 98.771,224.972 98.748,225.269 98.152 C 225.457 97.775,225.945 97.298,226.353 97.091 C 226.762 96.884,226.938 96.713,226.746 96.711 C 226.554 96.709,226.161 96.616,225.874 96.506 C 225.532 96.375,225.422 96.420,225.555 96.635 M369.760 96.783 C 370.254 97.039,370.576 97.526,370.705 98.211 C 370.885 99.172,370.897 99.151,370.854 97.928 C 370.811 96.692,370.748 96.597,369.910 96.499 L 369.012 96.394 369.760 96.783 M379.812 105.654 C 379.721 105.800,379.929 105.994,380.273 106.084 C 380.697 106.194,380.820 106.374,380.655 106.642 C 380.522 106.858,380.811 106.777,381.299 106.460 C 381.797 106.136,382.033 106.071,381.836 106.311 C 381.454 106.778,382.045 107.975,382.456 107.564 C 382.572 107.448,382.584 107.568,382.484 107.830 C 382.379 108.103,382.481 108.375,382.722 108.468 C 383.062 108.598,383.101 108.397,382.923 107.422 C 382.693 106.168,382.170 105.590,381.490 105.840 C 381.273 105.920,380.843 105.851,380.535 105.687 C 380.216 105.516,379.906 105.502,379.812 105.654 M219.067 106.182 C 218.961 106.289,218.949 106.727,219.042 107.155 C 219.179 107.792,219.146 107.852,218.858 107.485 C 218.559 107.103,218.533 107.118,218.684 107.584 C 218.782 107.886,218.865 108.290,218.869 108.483 C 218.873 108.675,219.086 108.406,219.343 107.884 C 219.601 107.363,220.237 106.714,220.759 106.442 L 221.707 105.947 220.808 106.139 C 220.314 106.245,219.865 106.456,219.810 106.609 C 219.755 106.761,219.573 106.886,219.404 106.886 C 219.236 106.886,219.175 106.684,219.270 106.437 C 219.454 105.958,219.382 105.867,219.067 106.182 M383.845 108.947 L 383.110 109.153 384.145 109.879 C 384.992 110.474,385.098 110.499,384.731 110.018 C 384.312 109.471,384.318 109.460,384.819 109.853 C 385.115 110.086,385.300 110.423,385.231 110.603 C 385.065 111.036,385.841 111.761,386.071 111.388 C 386.284 111.043,385.956 109.571,385.551 109.057 C 385.231 108.651,384.969 108.634,383.845 108.947 M215.868 112.083 C 215.868 112.326,215.706 112.579,215.509 112.645 C 215.285 112.719,215.262 112.835,215.449 112.950 C 215.614 113.052,215.907 112.880,216.102 112.569 C 216.325 112.211,216.347 111.937,216.162 111.823 C 216.000 111.723,215.868 111.840,215.868 112.083 M391.686 115.269 C 392.130 115.980,392.658 116.073,392.397 115.395 C 392.297 115.134,392.216 114.865,392.216 114.796 C 392.216 114.727,392.012 114.671,391.764 114.671 C 391.387 114.671,391.374 114.770,391.686 115.269 M87.949 117.572 C 87.661 117.647,87.189 117.647,86.901 117.572 C 86.613 117.496,86.849 117.435,87.425 117.435 C 88.001 117.435,88.237 117.496,87.949 117.572 M81.020 118.138 C 80.920 118.399,80.838 123.923,80.838 130.414 L 80.838 142.216 73.204 142.216 L 65.569 142.216 65.569 129.940 L 65.569 117.665 73.385 117.665 C 80.390 117.665,81.183 117.714,81.020 118.138 M394.311 117.878 C 394.558 117.970,394.932 118.180,395.142 118.346 C 395.427 118.572,395.475 118.524,395.334 118.156 C 395.230 117.886,394.857 117.675,394.504 117.688 C 394.066 117.704,394.005 117.765,394.311 117.878 M398.321 121.432 C 398.421 121.692,398.503 122.164,398.503 122.480 C 398.503 122.893,398.713 123.054,399.251 123.054 C 399.907 123.054,400.000 122.924,400.000 122.006 C 400.000 121.033,399.933 120.958,399.070 120.958 C 398.345 120.958,398.180 121.062,398.321 121.432 M44.383 160.304 L 44.461 184.680 42.889 184.877 L 41.317 185.073 41.298 197.851 C 41.287 205.786,41.177 210.373,41.009 209.955 C 40.784 209.395,40.508 209.281,39.381 209.281 L 38.024 209.281 38.024 207.784 C 38.024 206.507,37.940 206.287,37.448 206.287 C 36.067 206.287,35.030 204.609,35.030 202.372 C 35.030 200.312,35.025 200.299,34.207 200.295 C 32.273 200.286,32.039 200.067,32.001 198.244 C 31.934 195.067,31.664 194.552,29.865 194.174 C 29.163 194.026,29.042 193.851,29.042 192.983 C 29.042 191.294,28.812 191.018,27.408 191.018 L 26.137 191.018 25.955 188.444 C 25.740 185.396,25.515 185.050,23.691 184.967 C 22.929 184.932,24.461 184.831,27.096 184.742 L 31.886 184.581 31.963 160.254 L 32.039 135.928 38.172 135.928 L 44.304 135.928 44.383 160.304 M80.838 172.131 C 80.838 178.540,80.920 183.996,81.020 184.257 C 81.183 184.681,80.390 184.731,73.385 184.731 L 65.569 184.731 65.569 172.605 L 65.569 160.479 73.204 160.479 L 80.838 160.479 80.838 172.131 M102.865 185.023 C 102.564 185.128,101.898 185.147,101.384 185.064 L 100.449 184.913 101.347 184.732 C 102.508 184.498,103.706 184.728,102.865 185.023 M63.174 185.128 C 62.762 185.341,62.356 185.416,62.271 185.294 C 62.185 185.171,61.512 185.018,60.774 184.953 C 59.853 184.872,60.138 184.820,61.677 184.787 C 63.686 184.744,63.843 184.780,63.174 185.128 M134.281 184.998 L 133.084 185.180 133.000 188.684 C 132.910 192.391,132.310 193.745,130.612 194.068 C 130.018 194.181,129.730 196.884,129.672 202.879 L 129.641 206.208 128.144 206.504 L 126.647 206.800 126.645 200.930 C 126.644 193.930,126.277 192.273,124.616 191.779 L 123.653 191.493 123.648 188.636 C 123.643 185.236,123.579 185.105,121.851 184.953 C 121.113 184.888,123.877 184.831,127.994 184.825 C 132.111 184.820,134.940 184.897,134.281 184.998 M227.981 210.500 C 227.695 210.964,228.947 212.191,229.323 211.815 C 229.506 211.631,229.354 211.280,228.900 210.844 C 228.421 210.383,228.122 210.271,227.981 210.500 M397.978 214.364 C 397.522 215.094,397.511 215.269,397.922 215.269 C 398.096 215.269,398.163 215.146,398.070 214.996 C 397.977 214.845,398.056 214.670,398.247 214.606 C 398.437 214.543,398.538 214.328,398.472 214.129 C 398.396 213.900,398.214 213.987,397.978 214.364 M394.910 216.916 C 394.910 217.163,394.780 217.365,394.620 217.365 C 394.461 217.365,394.404 217.558,394.494 217.793 C 394.614 218.105,394.490 218.176,394.036 218.057 C 393.680 217.964,393.413 218.037,393.413 218.229 C 393.413 218.606,394.280 218.669,394.812 218.331 C 395.305 218.017,395.663 216.467,395.242 216.467 C 395.060 216.467,394.910 216.669,394.910 216.916 M391.819 218.983 C 391.650 219.423,391.844 219.760,392.265 219.760 C 392.403 219.760,392.515 219.491,392.515 219.162 C 392.515 218.475,392.059 218.358,391.819 218.983 M390.638 220.659 C 390.356 220.988,389.855 221.257,389.524 221.257 C 389.193 221.257,388.922 221.400,388.922 221.575 C 388.922 221.749,388.787 221.808,388.622 221.706 C 388.457 221.604,388.190 221.868,388.029 222.293 C 387.867 222.717,387.396 223.194,386.981 223.351 C 386.567 223.509,386.228 223.766,386.228 223.923 C 386.228 224.079,385.992 224.276,385.704 224.359 C 385.415 224.442,385.853 224.435,386.677 224.343 C 388.501 224.139,388.852 223.883,389.097 222.575 C 389.250 221.763,389.430 221.557,389.986 221.557 C 390.369 221.557,390.763 221.428,390.860 221.271 C 390.958 221.113,391.234 221.060,391.474 221.152 C 391.721 221.247,391.993 221.105,392.100 220.827 C 392.370 220.125,392.020 219.902,391.417 220.391 C 391.077 220.667,390.979 220.682,391.128 220.434 C 391.467 219.869,391.215 219.985,390.638 220.659 M379.123 230.082 C 378.822 230.424,378.861 230.493,379.340 230.457 C 379.661 230.433,379.991 230.239,380.073 230.027 C 380.270 229.513,379.588 229.553,379.123 230.082 M376.493 232.410 C 376.331 232.781,376.029 233.101,375.823 233.121 C 374.942 233.209,374.850 233.248,374.850 233.533 C 374.850 234.053,376.023 233.857,376.647 233.234 C 377.237 232.643,377.462 231.737,377.017 231.737 C 376.891 231.737,376.656 232.040,376.493 232.410 M372.844 234.330 C 372.760 234.548,372.586 234.662,372.458 234.582 C 372.329 234.503,372.040 234.672,371.815 234.958 C 371.446 235.430,371.457 235.440,371.931 235.068 C 372.219 234.842,372.455 234.792,372.455 234.957 C 372.455 235.122,372.051 235.424,371.557 235.629 C 371.055 235.837,370.669 236.216,370.682 236.488 C 370.695 236.757,370.765 236.835,370.837 236.662 C 370.909 236.490,371.411 236.401,371.953 236.464 C 373.074 236.595,373.559 236.172,373.828 234.827 C 374.016 233.886,373.177 233.462,372.844 234.330 M255.183 244.900 C 255.244 245.300,255.450 245.679,255.641 245.743 C 256.113 245.900,256.062 245.482,255.521 244.766 C 255.085 244.190,255.076 244.194,255.183 244.900 M361.168 244.712 C 361.036 244.933,360.659 245.270,360.329 245.463 C 359.791 245.778,359.821 245.801,360.629 245.699 C 361.123 245.637,361.493 245.433,361.452 245.248 C 361.411 245.062,361.512 244.910,361.677 244.910 C 361.841 244.910,361.976 244.775,361.976 244.611 C 361.976 244.177,361.448 244.243,361.168 244.712 M358.336 246.931 C 358.310 247.219,358.294 247.618,358.301 247.818 C 358.307 248.017,358.228 248.169,358.123 248.156 C 358.019 248.143,357.867 248.159,357.784 248.190 C 357.702 248.222,357.306 248.308,356.904 248.382 C 356.050 248.539,355.809 248.723,356.090 249.004 C 356.763 249.677,358.534 248.634,358.595 247.530 C 358.656 246.428,358.429 245.903,358.336 246.931 M262.094 252.470 C 262.648 254.070,262.648 254.072,262.150 253.461 C 261.890 253.141,261.677 253.019,261.677 253.190 C 261.677 253.898,262.768 254.512,263.504 254.217 C 264.032 254.006,264.082 253.925,263.693 253.911 C 263.403 253.901,262.883 253.454,262.539 252.919 C 262.194 252.384,261.994 252.182,262.094 252.470 " stroke="none" fill="#242424" fill-rule="evenodd"></path><path id="path4" d="M288.922 47.601 C 288.675 47.763,288.591 47.897,288.734 47.900 C 288.878 47.902,288.838 48.094,288.645 48.327 C 288.405 48.615,288.394 48.810,288.608 48.943 C 289.524 49.509,288.668 50.852,287.320 50.963 C 286.652 51.018,286.526 51.172,286.522 51.937 C 286.511 53.852,285.631 58.208,285.208 58.445 C 284.477 58.854,283.616 60.539,283.104 62.562 C 282.836 63.625,282.350 64.742,282.024 65.045 C 280.715 66.265,280.297 67.415,279.738 71.332 C 279.650 71.950,279.413 72.455,279.212 72.455 C 278.211 72.455,277.114 74.750,276.731 77.642 C 276.647 78.280,276.378 78.865,276.124 78.962 C 275.564 79.177,273.952 82.650,273.952 83.642 C 273.952 84.506,273.346 85.742,272.571 86.460 C 271.661 87.302,271.358 88.055,270.973 90.427 C 270.411 93.888,270.375 94.012,269.926 94.012 C 269.005 94.012,267.393 97.469,267.353 99.526 C 267.343 100.048,267.264 100.004,266.867 99.251 C 266.607 98.757,265.939 97.949,265.385 97.455 C 264.830 96.961,263.898 95.618,263.313 94.471 C 262.728 93.324,261.970 92.125,261.627 91.806 C 261.285 91.487,260.673 90.477,260.269 89.562 C 259.864 88.647,259.236 87.623,258.873 87.287 C 258.509 86.950,257.758 85.881,257.203 84.911 C 256.649 83.942,255.933 82.932,255.614 82.667 C 255.295 82.402,254.647 81.351,254.174 80.331 C 253.702 79.311,253.046 78.332,252.718 78.156 C 252.144 77.849,250.898 75.479,250.898 74.694 C 250.898 74.342,249.943 73.292,248.542 72.105 C 248.172 71.791,247.984 71.312,248.038 70.822 C 248.085 70.392,248.050 70.113,247.961 70.203 C 247.872 70.292,247.475 70.060,247.079 69.688 C 246.152 68.818,244.119 68.755,243.303 69.571 C 242.846 70.028,242.819 70.178,243.153 70.390 C 243.496 70.607,243.496 70.650,243.157 70.654 C 242.922 70.657,242.822 70.846,242.920 71.100 C 243.013 71.343,242.860 71.675,242.577 71.839 C 242.254 72.028,242.210 72.141,242.458 72.147 C 242.673 72.152,242.761 72.300,242.652 72.476 C 242.543 72.651,242.279 72.728,242.065 72.646 C 241.850 72.564,241.426 72.699,241.122 72.947 C 240.818 73.195,240.737 73.312,240.943 73.208 C 241.149 73.104,241.317 73.161,241.317 73.336 C 241.317 73.510,240.981 73.653,240.569 73.653 C 239.764 73.653,239.474 74.661,240.195 74.951 C 240.494 75.072,240.494 75.107,240.195 75.126 C 239.954 75.141,239.820 75.631,239.820 76.497 C 239.820 77.794,239.787 77.844,238.922 77.844 C 238.428 77.844,238.024 77.971,238.024 78.127 C 238.024 78.282,237.769 78.360,237.457 78.300 C 236.970 78.206,236.905 78.345,236.993 79.290 C 237.053 79.940,236.905 80.680,236.630 81.100 C 236.375 81.491,236.314 81.718,236.496 81.606 C 236.705 81.477,236.826 81.690,236.826 82.186 C 236.826 82.702,236.708 82.897,236.481 82.756 C 236.244 82.610,236.218 82.675,236.397 82.963 C 236.895 83.760,236.838 84.214,236.296 83.774 C 235.938 83.484,235.871 83.480,236.038 83.757 C 236.181 83.995,236.086 84.132,235.778 84.132 C 235.501 84.132,235.381 83.990,235.498 83.801 C 235.611 83.620,235.350 83.702,234.920 83.984 C 234.477 84.274,234.226 84.645,234.341 84.838 C 234.460 85.035,234.344 85.016,234.069 84.793 C 233.643 84.448,233.595 84.578,233.618 85.991 C 233.632 86.862,233.518 87.551,233.364 87.522 C 233.210 87.493,232.882 87.414,232.635 87.347 C 232.388 87.279,232.295 87.283,232.428 87.356 C 232.562 87.428,232.443 87.740,232.164 88.048 C 231.658 88.607,231.138 88.570,231.138 87.974 C 231.138 87.799,231.369 87.749,231.662 87.860 C 232.082 88.020,232.111 87.985,231.811 87.682 C 231.221 87.087,230.690 87.785,231.121 88.591 C 231.399 89.111,231.374 89.222,230.977 89.222 C 230.662 89.222,230.515 89.453,230.551 89.895 C 230.758 92.459,230.573 93.114,229.641 93.114 C 229.147 93.114,228.743 93.249,228.743 93.413 C 228.743 93.578,228.439 93.715,228.069 93.717 C 227.577 93.721,227.505 93.791,227.801 93.979 C 228.077 94.154,228.104 94.301,227.884 94.437 C 227.705 94.547,227.606 95.035,227.663 95.522 C 227.753 96.296,227.667 96.412,226.982 96.448 C 226.277 96.485,226.265 96.502,226.871 96.618 C 227.242 96.690,227.545 96.869,227.545 97.017 C 227.545 97.165,227.348 97.211,227.108 97.119 C 226.794 96.999,226.704 97.123,226.788 97.560 C 226.871 97.991,226.780 98.121,226.478 98.005 C 226.243 97.915,226.144 97.687,226.257 97.499 C 226.371 97.309,226.244 97.332,225.973 97.552 C 225.698 97.775,225.565 98.156,225.667 98.424 C 225.799 98.768,225.739 98.832,225.449 98.653 C 225.156 98.472,225.099 98.539,225.239 98.903 C 225.459 99.476,224.985 99.592,224.734 99.027 C 224.623 98.776,224.577 98.800,224.595 99.102 C 224.774 102.104,223.737 103.786,222.444 102.593 C 222.156 102.327,222.117 102.333,222.279 102.620 C 222.584 103.160,222.152 103.772,221.832 103.254 C 221.675 102.999,221.622 103.181,221.689 103.745 C 221.748 104.238,221.604 104.944,221.370 105.314 C 221.136 105.685,221.070 105.988,221.224 105.988 C 221.378 105.988,221.467 106.224,221.422 106.512 C 221.372 106.826,221.131 106.998,220.819 106.941 C 220.533 106.889,220.381 106.978,220.480 107.139 C 220.733 107.549,220.397 108.305,219.871 108.506 C 219.629 108.600,219.492 108.575,219.569 108.451 C 219.645 108.328,219.508 107.959,219.265 107.631 C 218.848 107.069,218.835 107.085,219.036 107.904 C 219.187 108.518,219.150 108.710,218.909 108.562 C 218.684 108.423,218.636 108.525,218.767 108.866 C 218.906 109.229,218.855 109.312,218.590 109.149 C 218.320 108.982,218.236 109.155,218.285 109.773 C 218.413 111.373,218.269 111.905,217.665 112.063 C 217.335 112.149,217.066 112.097,217.066 111.948 C 217.066 111.799,216.830 111.679,216.542 111.681 C 216.097 111.685,216.086 111.729,216.465 111.968 C 216.845 112.209,216.850 112.308,216.495 112.637 C 216.153 112.956,216.122 112.950,216.320 112.603 C 216.480 112.322,216.446 112.253,216.214 112.397 C 216.024 112.514,215.868 112.445,215.868 112.243 C 215.868 112.041,215.779 111.965,215.670 112.074 C 215.562 112.183,215.730 112.563,216.045 112.919 C 216.612 113.562,216.612 113.566,215.943 113.398 C 215.360 113.252,215.269 113.347,215.269 114.100 C 215.269 114.578,215.371 114.981,215.494 114.995 C 215.765 115.026,217.912 115.221,219.760 115.384 C 221.722 115.556,224.235 115.037,225.534 114.190 C 226.298 113.692,227.564 113.308,229.426 113.010 C 233.996 112.278,235.407 111.908,237.011 111.018 C 238.832 110.007,241.105 109.377,243.908 109.105 C 245.036 108.996,246.430 108.672,247.006 108.385 C 248.910 107.437,249.530 107.217,251.647 106.737 C 255.560 105.849,256.436 105.571,257.014 105.034 C 257.331 104.740,258.072 104.421,258.660 104.326 C 259.249 104.231,260.040 104.027,260.418 103.873 C 260.797 103.719,261.632 103.593,262.275 103.593 C 262.918 103.593,264.225 103.375,265.180 103.108 C 266.135 102.841,267.757 102.522,268.785 102.398 C 269.812 102.275,270.823 102.046,271.030 101.889 C 271.707 101.379,275.307 100.539,278.556 100.134 C 279.360 100.034,280.775 99.572,281.700 99.108 C 282.626 98.644,283.855 98.174,284.431 98.062 C 286.068 97.747,289.607 96.635,290.269 96.229 C 291.173 95.674,294.548 95.427,295.032 95.879 C 295.402 96.225,294.541 98.970,293.691 100.150 C 293.573 100.314,293.106 101.115,292.655 101.928 C 292.203 102.742,291.588 103.670,291.289 103.992 C 290.990 104.313,290.479 105.130,290.154 105.806 C 289.829 106.482,289.234 107.383,288.830 107.807 C 288.427 108.231,287.680 109.478,287.171 110.577 C 286.662 111.677,285.871 112.948,285.413 113.401 C 284.955 113.854,284.311 114.760,283.982 115.416 C 283.653 116.071,283.249 116.763,283.084 116.953 C 282.213 117.957,281.737 118.587,281.737 118.732 C 281.737 119.312,280.418 121.602,279.561 122.510 C 278.998 123.107,278.242 124.383,277.881 125.345 C 277.402 126.624,276.948 127.276,276.197 127.766 C 275.631 128.135,274.944 128.876,274.669 129.413 C 274.394 129.950,273.809 130.802,273.370 131.306 C 272.931 131.811,272.122 133.158,271.573 134.300 C 271.023 135.443,270.121 136.806,269.568 137.330 C 269.015 137.854,268.563 138.440,268.563 138.632 C 268.563 139.261,267.571 141.147,266.717 142.145 C 266.256 142.682,265.607 143.720,265.274 144.451 C 264.941 145.181,264.321 146.154,263.897 146.613 C 263.167 147.400,261.976 149.649,261.976 150.239 C 261.976 150.388,261.541 150.965,261.010 151.521 C 260.479 152.076,259.637 153.288,259.139 154.213 C 258.223 155.915,256.645 158.461,254.860 161.119 C 254.322 161.920,253.954 162.575,254.041 162.575 C 254.281 162.575,255.969 160.665,255.979 160.383 C 255.989 160.103,257.588 157.730,258.168 157.133 C 258.381 156.915,258.931 155.928,259.392 154.940 C 259.852 153.952,260.606 152.740,261.067 152.246 C 261.528 151.751,262.146 150.808,262.441 150.150 C 262.736 149.491,263.411 148.346,263.941 147.605 C 264.471 146.864,265.276 145.584,265.731 144.760 C 266.186 143.937,266.645 143.196,266.751 143.114 C 267.221 142.751,268.198 141.054,268.668 139.787 C 268.949 139.028,269.578 138.051,270.065 137.617 C 270.553 137.183,271.388 135.918,271.922 134.806 C 272.456 133.694,273.109 132.582,273.375 132.335 C 273.640 132.088,274.230 131.215,274.686 130.394 C 275.142 129.574,275.803 128.701,276.156 128.455 C 277.332 127.634,277.997 126.725,278.554 125.177 C 278.858 124.333,279.333 123.476,279.610 123.273 C 280.347 122.734,281.367 121.192,281.599 120.266 C 281.711 119.823,281.922 119.461,282.068 119.461 C 282.215 119.461,282.335 119.280,282.335 119.058 C 282.335 118.837,282.572 118.442,282.860 118.181 C 283.149 117.919,283.789 116.931,284.282 115.983 C 284.776 115.036,285.618 113.834,286.153 113.313 C 286.688 112.791,287.126 112.150,287.126 111.889 C 287.126 111.627,287.246 111.339,287.392 111.248 C 287.538 111.158,287.744 110.740,287.850 110.320 C 287.955 109.900,288.408 109.146,288.856 108.644 C 289.304 108.143,290.053 107.037,290.521 106.186 C 290.989 105.336,291.612 104.371,291.905 104.042 C 292.199 103.713,292.777 102.837,293.189 102.096 C 293.601 101.355,294.426 99.893,295.023 98.848 C 296.316 96.584,296.464 94.966,295.464 94.034 C 295.109 93.704,294.705 93.505,294.564 93.592 C 294.424 93.678,293.400 93.867,292.289 94.011 C 289.174 94.414,288.563 94.609,287.296 95.600 C 286.525 96.205,285.597 96.600,284.602 96.749 C 280.516 97.360,277.619 98.086,276.647 98.742 C 274.693 100.062,270.359 100.516,270.359 99.401 C 270.359 99.072,270.540 98.802,270.762 98.802 C 271.471 98.802,272.121 97.782,272.771 95.645 C 273.119 94.500,273.655 93.361,273.962 93.114 C 274.543 92.645,275.121 91.114,275.772 88.323 C 276.032 87.207,276.465 86.363,277.115 85.703 C 277.642 85.168,278.148 84.427,278.238 84.057 C 278.329 83.686,278.672 82.249,279.001 80.862 C 279.489 78.802,279.760 78.215,280.484 77.649 C 281.065 77.194,281.438 76.570,281.571 75.828 C 281.902 73.977,282.441 72.641,283.111 72.006 C 283.459 71.677,283.843 71.138,283.965 70.808 C 284.419 69.586,285.030 67.014,285.030 66.328 C 285.030 65.922,285.421 65.257,285.946 64.771 C 287.010 63.785,287.576 62.596,287.859 60.748 C 288.394 57.256,289.503 56.935,290.335 60.030 C 291.858 65.691,292.047 66.858,292.500 73.353 C 292.861 78.512,293.388 81.726,294.301 84.323 C 294.681 85.406,294.910 86.813,294.910 88.069 C 294.910 92.842,297.208 94.165,299.367 90.636 C 299.747 90.014,300.222 89.340,300.421 89.139 C 300.620 88.937,301.365 87.695,302.077 86.377 C 302.788 85.060,303.755 83.542,304.226 83.003 C 304.696 82.465,305.173 81.659,305.285 81.212 C 305.451 80.551,308.874 75.165,310.280 73.353 C 310.472 73.105,310.958 72.229,311.360 71.406 C 311.762 70.583,312.451 69.506,312.892 69.012 C 313.333 68.518,314.117 67.328,314.634 66.368 C 315.152 65.408,315.910 64.183,316.320 63.645 C 316.730 63.108,317.066 62.582,317.066 62.478 C 317.066 62.196,319.188 58.929,319.790 58.282 C 320.076 57.976,320.398 57.368,320.507 56.931 C 321.601 52.547,324.224 54.231,323.824 59.061 C 323.712 60.417,323.503 65.299,323.361 69.910 C 322.664 92.455,322.445 97.954,322.168 99.869 C 322.003 101.012,321.866 103.159,321.864 104.641 C 321.861 106.123,321.723 109.356,321.557 111.826 C 320.569 126.503,320.579 127.336,321.772 128.774 C 322.310 129.423,324.879 128.174,326.710 126.373 C 327.416 125.678,328.365 124.913,328.817 124.673 C 329.270 124.433,329.641 124.107,329.641 123.949 C 329.641 123.791,330.209 123.289,330.904 122.834 C 331.599 122.378,332.753 121.433,333.467 120.734 C 334.181 120.034,334.926 119.459,335.122 119.458 C 335.319 119.456,336.085 118.881,336.826 118.182 C 337.567 117.482,338.645 116.554,339.222 116.120 C 339.798 115.686,340.539 115.081,340.869 114.776 C 341.198 114.471,342.006 113.824,342.665 113.339 C 343.999 112.355,344.910 111.418,344.910 111.029 C 344.910 110.888,345.586 110.357,346.412 109.849 C 347.238 109.341,348.052 108.666,348.221 108.350 C 348.390 108.034,349.072 107.433,349.737 107.013 C 350.401 106.594,351.394 105.787,351.944 105.221 C 352.494 104.655,353.063 104.192,353.209 104.192 C 353.355 104.192,354.208 103.523,355.105 102.707 C 356.003 101.890,357.443 100.778,358.307 100.237 C 359.171 99.695,359.952 99.023,360.044 98.743 C 360.135 98.463,360.473 98.151,360.794 98.049 C 361.115 97.947,361.377 97.750,361.377 97.611 C 361.377 97.472,361.904 97.269,362.547 97.160 C 364.529 96.825,365.527 94.741,364.500 93.079 C 364.360 92.854,364.406 92.801,364.624 92.935 C 364.815 93.053,364.970 93.064,364.970 92.960 C 364.970 92.658,364.157 91.930,363.998 92.090 C 363.918 92.170,363.890 91.893,363.936 91.475 C 363.982 91.058,363.897 90.792,363.746 90.884 C 363.596 90.977,363.473 90.828,363.473 90.553 C 363.473 90.166,363.267 90.082,362.571 90.184 C 361.787 90.299,361.693 90.240,361.854 89.732 C 361.957 89.410,361.925 89.063,361.784 88.960 C 361.642 88.857,361.377 88.503,361.193 88.174 C 361.007 87.840,360.576 87.591,360.220 87.611 C 359.868 87.630,359.581 87.534,359.581 87.396 C 359.581 87.257,359.379 87.222,359.132 87.317 C 358.781 87.452,358.682 87.237,358.678 86.334 C 358.672 84.780,358.373 84.404,357.001 84.223 C 355.579 84.035,355.741 84.233,355.591 82.496 C 355.469 81.073,355.437 81.030,354.471 80.985 C 353.924 80.959,353.424 80.780,353.359 80.587 C 353.295 80.394,353.098 80.325,352.922 80.434 C 352.727 80.554,352.690 80.489,352.828 80.266 C 352.998 79.992,353.213 80.031,353.697 80.426 C 354.052 80.714,353.879 80.491,353.314 79.930 L 352.286 78.910 353.014 78.706 C 353.733 78.505,353.732 78.502,352.919 78.473 C 352.466 78.457,352.096 78.300,352.096 78.126 C 352.096 77.952,351.961 77.892,351.796 77.994 C 351.632 78.096,351.497 78.028,351.497 77.844 C 351.497 77.660,351.356 77.596,351.184 77.703 C 350.646 78.035,349.936 77.235,350.338 76.750 C 350.615 76.417,350.583 76.372,350.180 76.527 C 349.903 76.633,349.704 76.603,349.737 76.459 C 349.880 75.851,349.301 74.551,348.888 74.551 C 348.605 74.551,348.505 74.379,348.617 74.086 C 348.719 73.820,348.669 73.700,348.500 73.805 C 348.337 73.905,348.204 73.688,348.204 73.321 C 348.204 72.955,348.119 72.740,348.015 72.844 C 347.911 72.948,347.556 72.888,347.226 72.712 C 346.742 72.453,346.706 72.340,347.040 72.128 C 347.375 71.916,347.359 71.865,346.959 71.861 C 346.602 71.858,346.510 71.679,346.630 71.220 C 346.737 70.808,346.622 70.485,346.302 70.307 C 346.031 70.155,345.808 69.827,345.808 69.578 C 345.808 69.313,345.951 69.215,346.154 69.340 C 346.373 69.475,346.418 69.422,346.277 69.193 C 346.121 68.941,345.943 68.926,345.679 69.145 C 345.473 69.316,345.203 69.356,345.080 69.234 C 344.957 69.112,344.565 69.012,344.209 69.012 C 343.747 69.012,343.533 68.799,343.459 68.263 C 343.402 67.852,343.217 67.347,343.048 67.141 C 342.830 66.874,342.859 66.761,343.152 66.747 C 343.378 66.737,343.226 66.582,342.814 66.403 C 342.403 66.224,341.822 66.107,341.524 66.144 C 340.872 66.225,340.058 65.612,340.299 65.222 C 340.393 65.069,340.318 64.760,340.131 64.534 C 339.900 64.256,339.891 64.064,340.102 63.933 C 340.706 63.560,339.327 62.483,338.510 62.689 C 337.546 62.930,337.260 62.426,337.046 60.106 C 337.019 59.819,336.847 59.617,336.664 59.657 C 336.315 59.734,334.364 58.153,334.168 57.635 C 334.106 57.470,333.991 57.168,333.913 56.963 C 333.834 56.758,333.658 56.659,333.522 56.744 C 333.118 56.993,331.440 54.998,331.439 54.266 C 331.438 53.896,331.264 53.593,331.052 53.593 C 330.587 53.593,330.523 52.348,330.970 51.993 C 331.163 51.839,331.091 51.802,330.788 51.899 C 330.174 52.095,329.760 51.197,330.304 50.852 C 330.587 50.672,330.550 50.607,330.165 50.603 C 329.876 50.601,329.641 50.748,329.641 50.930 C 329.641 51.113,329.439 51.184,329.192 51.089 C 328.944 50.994,328.742 51.081,328.741 51.282 C 328.737 51.980,327.780 49.845,327.702 48.965 C 327.659 48.478,327.438 48.030,327.210 47.969 C 326.904 47.887,326.913 47.941,327.246 48.176 C 327.493 48.351,327.543 48.496,327.357 48.498 C 327.171 48.501,326.858 48.309,326.661 48.072 C 326.465 47.834,326.111 47.714,325.876 47.804 C 325.641 47.894,325.449 47.827,325.449 47.655 C 325.449 47.235,289.563 47.182,288.922 47.601 M327.763 66.020 C 328.293 65.080,328.756 66.835,329.223 71.557 C 329.402 73.358,329.837 74.697,330.832 76.499 C 331.389 77.508,331.817 78.977,332.142 80.990 C 332.816 85.177,332.773 85.022,333.931 87.466 C 334.505 88.679,335.219 90.816,335.517 92.216 C 335.814 93.615,336.373 95.355,336.759 96.082 C 337.375 97.242,337.949 99.494,338.522 102.994 C 338.617 103.570,338.794 104.177,338.916 104.341 C 339.039 104.506,339.220 104.980,339.318 105.395 C 339.417 105.810,339.748 106.418,340.054 106.747 C 341.629 108.437,341.802 111.724,340.344 112.264 C 338.709 112.869,338.488 113.036,338.060 113.984 C 337.764 114.639,337.318 114.997,336.487 115.246 C 335.607 115.510,335.226 115.835,334.908 116.596 C 334.598 117.338,334.191 117.698,333.342 117.978 C 332.311 118.318,330.260 120.036,330.226 120.589 C 330.218 120.710,329.511 121.145,328.654 121.557 C 327.684 122.023,326.949 122.615,326.706 123.126 C 326.234 124.121,325.334 124.650,324.540 124.398 C 323.875 124.187,323.831 123.723,324.231 121.108 C 324.383 120.120,324.599 110.621,324.713 100.000 C 324.826 89.379,324.960 80.082,325.009 79.341 C 325.059 78.600,325.126 75.737,325.160 72.979 C 325.194 70.179,325.342 67.964,325.495 67.964 C 325.646 67.964,326.054 67.324,326.400 66.542 C 326.990 65.212,327.044 65.168,327.229 65.868 C 327.419 66.589,327.439 66.595,327.763 66.020 M326.048 66.449 C 326.048 66.803,325.464 67.181,325.250 66.966 C 325.035 66.752,325.413 66.168,325.766 66.168 C 325.921 66.168,326.048 66.294,326.048 66.449 M350.973 76.722 C 351.014 76.927,350.869 77.059,350.651 77.014 C 350.433 76.968,350.344 77.076,350.454 77.253 C 350.591 77.476,350.767 77.479,351.027 77.263 C 351.234 77.091,351.520 77.051,351.664 77.173 C 351.808 77.295,351.746 77.159,351.525 76.871 C 351.053 76.254,350.870 76.204,350.973 76.722 M219.490 106.402 C 219.225 106.721,219.250 106.856,219.598 106.990 C 219.881 107.098,219.979 107.363,219.861 107.698 C 219.710 108.127,219.750 108.162,220.063 107.872 C 220.384 107.575,220.384 107.426,220.064 107.041 C 219.517 106.382,219.957 106.079,220.747 106.571 C 221.350 106.947,221.371 106.939,220.996 106.485 C 220.496 105.880,219.949 105.849,219.490 106.402 M321.740 131.971 C 321.075 133.257,320.731 139.914,320.669 152.695 C 320.624 161.890,320.204 183.913,319.967 189.521 C 319.907 190.953,320.164 191.396,321.442 192.059 C 322.346 192.528,323.077 192.202,324.616 190.644 C 325.063 190.191,325.558 189.820,325.715 189.820 C 325.872 189.820,326.584 189.248,327.297 188.548 C 328.010 187.848,328.983 187.006,329.459 186.677 C 329.936 186.347,330.609 185.762,330.956 185.376 C 331.303 184.989,331.932 184.494,332.353 184.275 C 332.775 184.055,333.650 183.360,334.299 182.729 C 334.948 182.098,335.876 181.314,336.362 180.986 C 336.847 180.658,338.005 179.682,338.934 178.817 C 339.863 177.953,340.769 177.246,340.946 177.246 C 341.124 177.246,341.814 176.707,342.480 176.048 C 343.145 175.389,343.866 174.850,344.082 174.850 C 344.298 174.850,344.943 174.304,345.516 173.637 C 346.088 172.970,347.197 172.028,347.979 171.544 C 348.760 171.061,349.838 170.241,350.374 169.722 C 350.909 169.204,351.719 168.550,352.172 168.269 C 352.626 167.989,353.569 167.233,354.268 166.589 C 354.967 165.946,355.907 165.229,356.357 164.997 C 356.807 164.765,357.245 164.361,357.329 164.099 C 357.413 163.837,357.888 163.151,358.383 162.575 C 359.808 160.918,359.804 160.585,358.339 159.044 C 357.622 158.291,356.895 157.515,356.722 157.319 C 356.549 157.124,356.010 156.758,355.523 156.506 C 355.037 156.255,354.052 155.530,353.334 154.896 C 352.617 154.261,351.472 153.375,350.791 152.927 C 350.109 152.478,349.214 151.789,348.802 151.395 C 348.391 151.001,347.440 150.268,346.689 149.766 C 345.939 149.264,345.140 148.631,344.915 148.359 C 344.689 148.087,343.619 147.271,342.537 146.546 C 341.454 145.820,339.626 144.483,338.473 143.574 C 337.320 142.666,335.636 141.358,334.731 140.668 C 333.825 139.979,332.978 139.239,332.848 139.025 C 332.718 138.810,332.030 138.294,331.320 137.877 C 330.609 137.461,329.773 136.836,329.460 136.489 C 329.148 136.142,328.286 135.443,327.545 134.934 C 326.804 134.426,326.020 133.836,325.802 133.622 C 325.584 133.408,325.276 133.234,325.116 133.234 C 324.956 133.234,324.662 133.101,324.463 132.939 C 324.265 132.776,323.671 132.299,323.144 131.877 L 322.186 131.110 321.740 131.971 " stroke="none" fill="#b42494" fill-rule="evenodd"></path></g></svg>